<svg width="64" xmlns="http://www.w3.org/2000/svg" height="64" viewBox="0 0 64 64"><g fill="#fff"><path d="M62.463 1.543C61.446.526 60.06.001 58.633 0a5.476 5.476 0 0 0-3.801 1.609l-2.446 2.443c-.01.012-.015.025-.024.035L20.453 35.906c-.104.104-.158.233-.234.353a2 2 0 0 0-.327.505l-3.254 7.5a2.03 2.03 0 0 0 .397 2.211 2.04 2.04 0 0 0 2.195.5l7.824-2.943c.217-.081.406-.209.579-.352.126-.08.262-.14.367-.245L60.035 11.49c.006-.006.008-.014.015-.02l2.341-2.33c2.118-2.111 2.15-5.52.072-7.597zM26.558 39.119l-1.777-1.773L53.932 8.277l1.776 1.773-29.15 29.069zm32.95-32.857l-.916.912-1.784-1.779.911-.91c.265-.264.609-.411.972-.416.344-.008.653.119.883.348.491.49.459 1.319-.066 1.845z"/><path d="M58.454 22.253c-1.128 0-2.04.911-2.04 2.034v33.611a2.039 2.039 0 0 1-2.04 2.033H6.12a2.038 2.038 0 0 1-2.04-2.033V9.787c0-1.121.914-2.034 2.04-2.034h33.403c1.127 0 2.04-.911 2.04-2.034s-.913-2.034-2.04-2.034H6.12C2.745 3.685 0 6.422 0 9.787v48.111C0 61.263 2.745 64 6.12 64h48.254c3.374 0 6.12-2.737 6.12-6.102V24.287a2.037 2.037 0 0 0-2.04-2.034z"/></g></svg>