<?xml version="1.0" encoding="utf-8"?><svg xmlns="http://www.w3.org/2000/svg" xmlns:xlink="http://www.w3.org/1999/xlink"><symbol viewBox="0 0 371.23 371.23" id="close" xmlns="http://www.w3.org/2000/svg"><path d="M371.23 21.213L350.018 0 185.615 164.402 21.213 0 0 21.213l164.402 164.402L0 350.018l21.213 21.212 164.402-164.402L350.018 371.23l21.212-21.212-164.402-164.403z"/></symbol><symbol viewBox="0 0 300 300" id="inst" xmlns="http://www.w3.org/2000/svg"><path d="M150.018 298.956c-82.141 0-148.967-66.822-148.967-148.958S67.877 1.04 150.018 1.04c82.141 0 148.967 66.822 148.967 148.958s-66.826 148.958-148.967 148.958zm0-289.916C72.289 9.04 9.051 72.273 9.051 149.998s63.238 140.958 140.967 140.958c77.73 0 140.967-63.233 140.967-140.958S227.748 9.04 150.018 9.04z"/><path d="M186.095 123.077a5.162 5.162 0 0 1-5.154-5.154v-10.308a5.162 5.162 0 0 1 5.154-5.154h10.308a5.162 5.162 0 0 1 5.154 5.154v10.308a5.162 5.162 0 0 1-5.154 5.154h-10.308zm-36.077 11.277c-3.742 0-7.195 1.098-10.169 2.902.928-.289 1.891-.479 2.907-.479 5.504 0 9.962 4.458 9.962 9.968 0 5.494-4.458 9.962-9.962 9.962s-9.962-4.463-9.962-9.962c0-1.026.201-1.989.484-2.912-1.814 2.974-2.907 6.427-2.907 10.169 0 10.859 8.787 19.652 19.652 19.652 10.849 0 19.652-8.787 19.652-19.652s-8.808-19.648-19.657-19.648z"/><path d="M150.018 123.077c17.075 0 30.923 13.843 30.923 30.923s-13.854 30.923-30.923 30.923c-17.075 0-30.923-13.843-30.923-30.923s13.848-30.923 30.923-30.923m0-10.308c-22.734 0-41.231 18.497-41.231 41.231s18.497 41.231 41.231 41.231 41.231-18.497 41.231-41.231-18.497-41.231-41.231-41.231z"/><path d="M191.893 87h-83.75c-13.879 0-25.125 11.246-25.125 25.125v83.75c0 13.879 11.246 25.125 25.125 25.125h83.75c13.879 0 25.125-11.246 25.125-25.125v-83.75c0-13.879-11.246-25.125-25.125-25.125zm14.817 46.385h-33.69c4.912 5.479 7.921 12.684 7.921 20.615 0 17.08-13.854 30.923-30.923 30.923-17.075 0-30.923-13.843-30.923-30.923 0-7.932 3.01-15.142 7.921-20.615h-33.69v-21.26c0-8.169 6.648-14.817 14.817-14.817h83.75c8.174 0 14.817 6.648 14.817 14.817v21.26z"/></symbol><symbol viewBox="0 0 512 512" id="message" xmlns="http://www.w3.org/2000/svg"><path d="M501.801 139.942H171.312c-5.633 0-10.199 4.566-10.199 10.199v19.235h-97.21c-5.633 0-10.199 4.566-10.199 10.199s4.566 10.199 10.199 10.199h97.21v132.452h-58.101c-5.633 0-10.199 4.566-10.199 10.199s4.566 10.199 10.199 10.199h58.101v19.235c0 5.633 4.566 10.199 10.199 10.199h330.489c5.633 0 10.199-4.566 10.199-10.199V150.141c0-5.633-4.566-10.199-10.199-10.199zm-25.16 20.398l-140.07 114.985L197.14 160.34h279.501zm14.961 191.321h-310.09v-177.77l148.556 122.51a10.183 10.183 0 0 0 6.489 2.331c2.295 0 4.591-.772 6.471-2.316L491.602 174.45v177.211z"/><path d="M119.673 244.768H10.199C4.566 244.768 0 249.334 0 254.967s4.566 10.199 10.199 10.199h109.474c5.633 0 10.199-4.566 10.199-10.199.001-5.633-4.566-10.199-10.199-10.199zm-50.318 77.459h-5.451c-5.633 0-10.199 4.566-10.199 10.199s4.566 10.199 10.199 10.199h5.451c5.633 0 10.199-4.566 10.199-10.199s-4.566-10.199-10.199-10.199z"/></symbol><symbol viewBox="0 0 300 300" id="vk" xmlns="http://www.w3.org/2000/svg"><path d="M234.487 196.239a12.16 12.16 0 0 0-.599-1.151c-3.068-5.526-8.932-12.309-17.587-20.351l-.183-.184-.092-.09-.093-.093h-.093c-3.928-3.745-6.416-6.262-7.457-7.551-1.906-2.456-2.333-4.941-1.291-7.46.736-1.903 3.5-5.921 8.287-12.061a672.105 672.105 0 0 0 5.984-7.826c10.62-14.119 15.225-23.142 13.812-27.071l-.549-.918c-.369-.553-1.32-1.058-2.853-1.52-1.536-.46-3.5-.536-5.895-.23l-26.518.183c-.43-.152-1.043-.138-1.842.046l-1.197.277-.462.231-.366.277c-.307.183-.645.505-1.013.966a6.35 6.35 0 0 0-.919 1.611c-2.887 7.428-6.17 14.333-9.854 20.717-2.271 3.807-4.357 7.105-6.262 9.899-1.902 2.792-3.499 4.85-4.787 6.168-1.29 1.32-2.454 2.378-3.5 3.176-1.044.799-1.841 1.137-2.393 1.013a67.552 67.552 0 0 1-1.567-.369c-.859-.553-1.55-1.305-2.07-2.256-.523-.951-.875-2.149-1.059-3.591-.183-1.444-.292-2.685-.323-3.729-.029-1.043-.015-2.517.047-4.42.064-1.904.093-3.192.093-3.867 0-2.333.045-4.865.137-7.597.093-2.732.168-4.896.231-6.49.063-1.596.092-3.285.092-5.065s-.108-3.176-.323-4.19a14.372 14.372 0 0 0-.964-2.947c-.431-.951-1.061-1.687-1.888-2.21-.829-.522-1.859-.936-3.084-1.244-3.254-.736-7.397-1.135-12.432-1.196-11.417-.123-18.753.615-22.007 2.211-1.289.674-2.456 1.596-3.499 2.761-1.105 1.351-1.259 2.088-.462 2.209 3.684.552 6.291 1.872 7.826 3.959l.553 1.106c.43.798.86 2.21 1.29 4.236.429 2.025.706 4.266.828 6.72.306 4.482.306 8.318 0 11.51-.307 3.193-.598 5.678-.875 7.459-.277 1.78-.691 3.223-1.243 4.327-.553 1.105-.921 1.78-1.106 2.025-.184.245-.338.4-.46.46a6.895 6.895 0 0 1-2.487.462c-.86 0-1.903-.43-3.131-1.29-1.227-.86-2.501-2.041-3.821-3.545-1.32-1.504-2.809-3.607-4.467-6.308-1.657-2.701-3.376-5.893-5.156-9.576l-1.473-2.671c-.921-1.718-2.179-4.22-3.775-7.504a144.779 144.779 0 0 1-4.236-9.531c-.491-1.289-1.227-2.27-2.209-2.946l-.461-.277c-.306-.245-.798-.505-1.473-.783a9.772 9.772 0 0 0-2.118-.598l-25.229.183c-2.578 0-4.327.584-5.248 1.751l-.369.552c-.184.307-.277.798-.277 1.474 0 .675.184 1.504.553 2.486a303.791 303.791 0 0 0 12.016 25.046c4.327 8.041 8.088 14.519 11.279 19.427a229.609 229.609 0 0 0 9.76 13.904c3.315 4.359 5.509 7.152 6.583 8.379 1.075 1.229 1.919 2.149 2.533 2.762l2.302 2.209c1.473 1.474 3.637 3.238 6.491 5.294 2.855 2.057 6.016 4.083 9.484 6.079 3.469 1.993 7.504 3.62 12.109 4.878 4.604 1.259 9.085 1.765 13.443 1.521h10.589c2.148-.185 3.775-.861 4.88-2.026l.366-.462c.246-.366.477-.936.69-1.702a9.372 9.372 0 0 0 .323-2.532c-.063-2.639.138-5.018.597-7.135.459-2.117.982-3.713 1.567-4.788.585-1.074 1.245-1.98 1.979-2.715.736-.736 1.26-1.182 1.568-1.336.306-.154.55-.259.734-.322 1.473-.491 3.207-.015 5.204 1.428 1.995 1.443 3.867 3.224 5.617 5.341 1.75 2.119 3.852 4.496 6.307 7.135 2.457 2.64 4.604 4.602 6.445 5.893l1.841 1.105c1.229.737 2.825 1.413 4.79 2.026 1.961.613 3.679.767 5.155.46l23.571-.368c2.331 0 4.145-.386 5.432-1.152 1.289-.767 2.055-1.613 2.302-2.532.246-.92.26-1.965.047-3.132-.211-1.16-.426-1.974-.64-2.434z"/><path d="M150.018 298.956c-82.141 0-148.967-66.822-148.967-148.958S67.877 1.04 150.018 1.04c82.141 0 148.967 66.822 148.967 148.958s-66.826 148.958-148.967 148.958zm0-289.916C72.289 9.04 9.051 72.273 9.051 149.998s63.238 140.958 140.967 140.958c77.73 0 140.967-63.233 140.967-140.958S227.748 9.04 150.018 9.04z"/></symbol></svg>