<svg width="319" height="115" viewBox="0 0 319 115" xmlns="http://www.w3.org/2000/svg"><title>Group</title><g fill="#387F5B" fill-rule="evenodd"><path d="M261.884 40.828h-2l-5.222 1.968-6.477 33.393h6.84l6.859-35.361m-4.972-5.136c.295.312.661.559 1.099.742.437.183.925.274 1.463.274.537 0 1.066-.091 1.586-.274.519-.183.987-.43 1.402-.742a4.917 4.917 0 0 0 1.068-1.097c.296-.419.49-.866.582-1.339.092-.473.071-.92-.063-1.339a2.831 2.831 0 0 0-.642-1.097 3.136 3.136 0 0 0-1.115-.742 3.902 3.902 0 0 0-1.479-.274 4.63 4.63 0 0 0-1.57.274c-.509.183-.97.43-1.386.742a4.89 4.89 0 0 0-1.067 1.097 3.432 3.432 0 0 0-.583 1.339c-.092.473-.071.92.063 1.339.134.42.348.785.642 1.097M100.386 50.709c-28.913-2.398-54.622-22.836-81.261-8.769 25.719-16.538 47.134 1.996 81.261 8.769zM92.685 7.05C69.669 3.657 48.204 5.212 32.087 30.699 42.973 3.552 72.835-.411 92.685 7.05zm23.969 39.871c-26.916 3.797-45.588-16.345-77.98-13.905 7.769-11.787 20.922-19.547 35.934-19.547 20.339 0 37.397 14.247 42.046 33.452zm32.615-13.299c-4.49 5.692-12.715 8.886-19.523 11.019-5.734-25.562-28.24-44.64-55.138-44.64-24.839 0-45.934 16.269-53.535 38.89-5.793 3.407-10.976 9.875-16.705 17.016 51.839-42.844 105.1 42.233 144.901-22.285zm149.184 35.242c-.234 1.206-.313 2.303-.235 3.292.077.99.325 1.839.747 2.548a4.24 4.24 0 0 0 1.794 1.646c.775.387 1.743.581 2.904.581 2.237 0 4.209-.463 5.915-1.387 1.707-.926 3.177-2.183 4.411-3.776l-1.485-1.161a8.636 8.636 0 0 1-1.934 1.404 4.67 4.67 0 0 1-2.222.564c-.517 0-.987-.097-1.412-.29a2.805 2.805 0 0 1-1.041-.79 2.909 2.909 0 0 1-.562-1.179 3.44 3.44 0 0 1-.008-1.452l4.736-24.423h7.776l.563-2.903h-7.775l2.297-11.841h-1.969a70.053 70.053 0 0 1-2.163 5.001c-.756 1.57-1.649 2.952-2.676 4.146a11.69 11.69 0 0 1-3.615 2.839c-1.383.699-3.043 1.049-4.979 1.049l-.332 1.709h6.001l-4.736 24.423m-17.027 2.453a7.04 7.04 0 0 1-1.658 1.645 8.641 8.641 0 0 1-2.271 1.145 8.287 8.287 0 0 1-2.697.437c-.99 0-1.885-.125-2.687-.372a6.978 6.978 0 0 1-2.227-1.161c-.683-.527-1.331-1.205-1.945-2.033-.614-.828-1.225-1.833-1.834-3.016l-3.302 2.548c.77 1.355 1.616 2.452 2.54 3.29.923.84 1.883 1.49 2.88 1.953a11.38 11.38 0 0 0 3.045.935c1.033.162 2.055.243 3.066.243 2.215 0 4.209-.269 5.98-.807 1.771-.538 3.297-1.275 4.574-2.21a11.887 11.887 0 0 0 3.114-3.323 12.085 12.085 0 0 0 1.62-4.114c.28-1.441.234-2.704-.136-3.791a7.764 7.764 0 0 0-1.733-2.871 12.32 12.32 0 0 0-2.804-2.178 46.566 46.566 0 0 0-3.37-1.758 655.062 655.062 0 0 1-3.397-1.613c-1.103-.527-2.066-1.102-2.892-1.726-.825-.624-1.453-1.324-1.884-2.097-.43-.775-.545-1.678-.345-2.711.121-.623.397-1.215.828-1.774a6.294 6.294 0 0 1 1.64-1.468 8.707 8.707 0 0 1 2.291-1 9.972 9.972 0 0 1 2.75-.372c1.849 0 3.484.528 4.904 1.582 1.419 1.054 2.576 2.656 3.471 4.807l2.955-2.259c-.77-1.355-1.552-2.452-2.346-3.291-.795-.839-1.626-1.489-2.493-1.952a8.944 8.944 0 0 0-2.77-.935 19.652 19.652 0 0 0-3.18-.242c-1.721 0-3.354.242-4.9.726-1.545.484-2.924 1.156-4.134 2.016a12.47 12.47 0 0 0-3.046 3.065 10.08 10.08 0 0 0-1.637 3.872c-.289 1.484-.275 2.77.042 3.855a7.611 7.611 0 0 0 1.54 2.872c.71.828 1.563 1.56 2.559 2.194a41.94 41.94 0 0 0 3.06 1.774c1.043.549 2.075 1.081 3.093 1.597 1.018.517 1.902 1.092 2.65 1.726.748.635 1.309 1.345 1.684 2.13.374.785.46 1.705.255 2.759-.125.644-.409 1.279-.853 1.903M218.53 73.8c.924.84 1.884 1.49 2.881 1.953a11.37 11.37 0 0 0 3.045.935c1.033.162 2.055.243 3.066.243 2.216 0 4.209-.269 5.98-.807 1.771-.538 3.297-1.275 4.574-2.21a11.883 11.883 0 0 0 3.113-3.323 12.044 12.044 0 0 0 1.62-4.114c.28-1.441.235-2.704-.134-3.791a7.768 7.768 0 0 0-1.735-2.871 12.292 12.292 0 0 0-2.803-2.178 46.566 46.566 0 0 0-3.37-1.758 697.672 697.672 0 0 1-3.398-1.613c-1.102-.527-2.066-1.102-2.891-1.726-.826-.624-1.453-1.324-1.884-2.097-.43-.775-.546-1.678-.345-2.711.121-.623.397-1.215.828-1.774a6.305 6.305 0 0 1 1.639-1.468 8.729 8.729 0 0 1 2.292-1 9.972 9.972 0 0 1 2.75-.372c1.85 0 3.484.528 4.904 1.582 1.419 1.054 2.576 2.656 3.471 4.807l2.955-2.259c-.77-1.355-1.553-2.452-2.347-3.291s-1.626-1.489-2.492-1.952a8.95 8.95 0 0 0-2.771-.935c-.98-.161-2.04-.242-3.179-.242-1.721 0-3.354.242-4.9.726-1.546.484-2.924 1.156-4.134 2.016a12.47 12.47 0 0 0-3.046 3.065 10.098 10.098 0 0 0-1.638 3.872c-.288 1.484-.274 2.77.043 3.855a7.61 7.61 0 0 0 1.539 2.872c.711.828 1.563 1.56 2.559 2.194a42.152 42.152 0 0 0 3.06 1.774c1.044.549 2.075 1.081 3.094 1.597 1.018.517 1.902 1.092 2.65 1.726.748.635 1.309 1.345 1.684 2.13.374.785.46 1.705.255 2.759-.125.644-.41 1.279-.853 1.903a7.04 7.04 0 0 1-1.658 1.645 8.641 8.641 0 0 1-2.271 1.145 8.293 8.293 0 0 1-2.698.437c-.989 0-1.885-.125-2.686-.372a6.978 6.978 0 0 1-2.227-1.161c-.683-.527-1.332-1.205-1.945-2.033-.614-.828-1.225-1.833-1.835-3.016l-3.301 2.548c.77 1.355 1.616 2.452 2.539 3.29"/><path d="M56.349 103.868c23.016 3.393 44.481 1.838 60.598-23.648-10.886 27.146-40.747 31.11-60.598 23.648zM32.615 67.782c26.915-3.797 45.588 16.345 77.98 13.905-7.769 11.787-20.922 19.547-35.934 19.547-20.339 0-37.398-14.247-42.046-33.452zM15.54 64.967c25.719-16.538 47.134 1.996 81.26 8.769-28.912-2.399-54.621-22.837-81.26-8.769zM0 81.081c4.49-5.692 12.715-8.886 19.523-11.019 5.734 25.562 28.24 44.64 55.138 44.64 24.839 0 45.934-16.269 53.534-38.89 5.794-3.407 10.977-9.875 16.706-17.016C93.062 101.64 39.801 16.563 0 81.081zm157.28-14.604c.159-.817.515-1.602 1.07-2.355a11.439 11.439 0 0 1 2.075-2.129 21 21 0 0 1 2.801-1.888 39.134 39.134 0 0 1 3.239-1.645 45.637 45.637 0 0 1 3.396-1.371 75.102 75.102 0 0 1 3.294-1.097l-2.51 12.937c-.788.516-1.555 1.006-2.301 1.468-.746.463-1.48.866-2.203 1.21-.723.344-1.453.619-2.192.823a8.488 8.488 0 0 1-2.27.306 4.138 4.138 0 0 1-2.015-.5 4.468 4.468 0 0 1-1.528-1.355c-.406-.569-.691-1.236-.854-2a5.966 5.966 0 0 1-.002-2.404zm-6.03 7.97c.624.774 1.442 1.381 2.453 1.822 1.012.441 2.195.662 3.55.662 1.462 0 2.78-.167 3.952-.501a16.902 16.902 0 0 0 3.287-1.307 25.705 25.705 0 0 0 2.892-1.773c.91-.646 1.835-1.28 2.773-1.904l-.92 4.743h6.905l5.075-26.166c.267-1.376.295-2.635.087-3.775a5.312 5.312 0 0 0-1.534-2.904c-.814-.795-1.963-1.414-3.447-1.855-1.485-.44-3.367-.661-5.647-.661-1.871 0-3.698.21-5.478.63-1.781.418-3.375.989-4.784 1.709-1.409.721-2.585 1.576-3.531 2.565-.944.99-1.527 2.054-1.748 3.194a4.695 4.695 0 0 0-.055 1.613c.076.495.241.925.492 1.291.251.366.578.65.98.854.4.206.87.307 1.408.307.688 0 1.278-.129 1.769-.387.49-.258.906-.597 1.246-1.016a5.15 5.15 0 0 0 .817-1.468c.205-.559.366-1.14.483-1.743a9.299 9.299 0 0 1 .598-1.919 5.159 5.159 0 0 1 1.184-1.694c.515-.495 1.167-.892 1.957-1.194.79-.301 1.765-.452 2.927-.452 1.032 0 1.934.146 2.706.436.772.291 1.383.77 1.835 1.436.452.667.728 1.544.829 2.629.101 1.087-.001 2.415-.305 3.985l-.419 2.161c-1.624.388-3.292.807-5.003 1.259a63.468 63.468 0 0 0-5.028 1.549 46.108 46.108 0 0 0-4.721 1.967 22.404 22.404 0 0 0-4.069 2.517 14.66 14.66 0 0 0-3.042 3.21 10.496 10.496 0 0 0-1.666 4.017c-.238 1.226-.255 2.366-.051 3.419.204 1.055.619 1.969 1.243 2.744zm36.018-.647c.923.84 1.883 1.49 2.88 1.953a11.37 11.37 0 0 0 3.045.935c1.033.162 2.055.243 3.066.243 2.215 0 4.209-.269 5.98-.807 1.771-.538 3.297-1.275 4.575-2.21a11.894 11.894 0 0 0 3.112-3.323 12.067 12.067 0 0 0 1.621-4.114c.28-1.441.234-2.704-.136-3.791a7.753 7.753 0 0 0-1.734-2.871 12.276 12.276 0 0 0-2.804-2.178 46.335 46.335 0 0 0-3.369-1.758 655.062 655.062 0 0 1-3.397-1.613c-1.103-.527-2.066-1.102-2.892-1.726-.826-.624-1.453-1.324-1.884-2.097-.43-.775-.546-1.678-.345-2.711.12-.623.397-1.215.828-1.774a6.294 6.294 0 0 1 1.64-1.468 8.707 8.707 0 0 1 2.291-1 9.972 9.972 0 0 1 2.75-.372c1.849 0 3.484.528 4.904 1.582 1.419 1.054 2.576 2.656 3.471 4.807l2.955-2.259c-.77-1.355-1.553-2.452-2.346-3.291-.795-.839-1.626-1.489-2.493-1.952a8.95 8.95 0 0 0-2.771-.935 19.63 19.63 0 0 0-3.179-.242c-1.721 0-3.354.242-4.9.726-1.545.484-2.924 1.156-4.134 2.016a12.487 12.487 0 0 0-3.046 3.065 10.098 10.098 0 0 0-1.638 3.872c-.288 1.484-.274 2.77.043 3.855a7.611 7.611 0 0 0 1.54 2.872c.71.828 1.563 1.56 2.558 2.194a42.152 42.152 0 0 0 3.06 1.774 232.25 232.25 0 0 0 3.094 1.597c1.018.517 1.902 1.092 2.65 1.726.748.635 1.308 1.345 1.684 2.13.375.785.46 1.705.255 2.759-.125.644-.41 1.279-.853 1.903a7.04 7.04 0 0 1-1.658 1.645 8.641 8.641 0 0 1-2.271 1.145 8.288 8.288 0 0 1-2.698.437c-.989 0-1.884-.125-2.686-.372a6.989 6.989 0 0 1-2.227-1.161c-.683-.527-1.331-1.205-1.945-2.033-.614-.828-1.225-1.833-1.835-3.016l-3.301 2.548c.769 1.355 1.616 2.452 2.54 3.29"/></g></svg>