<svg id="Layer_1" xmlns="http://www.w3.org/2000/svg" viewBox="0 0 333 100"><style>.st0{fill: #fff}</style><path class="st0" d="M249.4 46.2c0-17.8 11.6-32.9 27.7-38.2-7.8 6.3-12.8 16-12.8 26.8 0 10.1 4.4 19.3 11.4 25.6-4.6-6.2-7.4-13.6-7.4-21.6 0-15.2 9.8-28.1 23.5-32.7 11.7.6 22 6.3 28.9 14.8-13.7-4.8-29.6-.4-38.8 11.8-6.1 8.1-8 18.4-6.2 27.6-.1-7.4 2.1-15.4 7-22 10.1-13.4 28.1-17.3 42.7-10.2 2.8 5.6 4.3 11.8 4.3 18 0 22.2-18 40.1-40.1 40.1-22.3.1-40.2-17.9-40.2-40z"/><path class="st0" d="M2.5 79.5s49.7-24.5 142 0 148.1-3.7 148.1-3.7-62.1 38.4-148.1 14.4c-100.9-28-142-10.7-142-10.7zm10.8-18.3c.4-.8.8-1.5 1.2-2.3.5-1.2.8-2.6.9-4 .3-.1.6-.8.9-2 .4-1.3.7-2.5 1-3.8.9-1.2 1.5-2.4 1.9-3.7.4-1.3.7-2.2.8-2.7 1.6.2 3.4-.3 5.7-1.3 3.1-1.5 5-2.3 5.5-2.4.9.1 1.9 0 2.9-.2.9-.2 1.7-.4 2.6-.6.1.6.1 1.7.1 3.2v4.4c.3.5.5 1.2.5 1.9 0 .8-.2 1.6-.5 2.4v2.5l-.1 3.2v2.9c0 .7.2 1 .8 1 .7 0 1.4-.4 2.1-1.1.7-.7 1.1-1.5 1-2.2.3-.7.6-1.9.9-3.8.3-1.9.5-3.3.5-4.3.1-.1.4-1.9.8-5.2s.6-5.4.6-6.1c1.1-.6 1.7-1.3 1.7-2.1 0-.7-.4-1.4-1.2-1.9v-2.8l.1-3c0-2.2-.1-3.6-.3-4v-3.3c0-2.5-.2-4.5-.7-6.1-.2-1.3-1-2.3-2.6-3s-2.6-1.5-3.1-2.3c0-.4.1-.9.4-1.6.8-1.9 1.2-3 1.2-3.4 0-.6-.2-1-.7-1.1-.5-.2-.8-.3-1.1-.3-.6 0-1.4.3-2.3.9-2.1 1.3-3.2 2-3.3 2-.1.5-.2 1-.4 1.3-.5.9-1.1 1.4-1.8 1.4-.1.1-.5.2-1.2.3-.7.2-1.2.6-1.7 1.4-.1.2-.1.4-.2.6 0 .1 0 .3-.1.4 0 .3.2.7.5 1 .3.3.3.7.1 1.1-.9.7-2.3 3.4-4 8.1-1.3 3.4-2.4 6.8-3.4 10.2-.5.8-.9 1.6-1.3 2.5-.4 1-.8 2.1-1.2 3.1-1.4.2-2.5.6-3.2 1.4s-1.2 1.9-1.7 3.6c.1.3.2.7.2 1.3v1.2c0 1.1.6 1.5 1.9 1.4 0 .5-.3 1.5-.9 3.1-.6 1.6-.9 2.9-1 3.9-.1.1-.3.6-.6 1.3-.2.8-.4 1.4-.4 1.9-.3.6-.5 1.4-.8 2.3-.3.9-.4 1.8-.4 2.4 0 1.4.4 2.1 1.3 2.1.5-.4 1.1-.6 2.1-1.1zm23.7-27c-1.2 0-2.1 0-2.6.1s-1 .3-1.5.6c-.9-.1-2.5 0-4.8.2s-3.6.3-3.8.3c-.7 0-1-.1-1.1-.2 0-1.1.6-2.7 1.7-4.9 1.1-2.1 1.8-3.7 2-4.7l2-3.5c.7-1.2 1-2.2 1.1-3 .7-.9 1.1-1.4 1.2-1.6.4-.5.8-.7 1.2-.7.9 0 1.8.5 2.6 1.5.7 1.1 1.4 2.3 2.2 3.4v2.5c0 .7 0 1.3.1 2.1.1.7.2 1.1.4 1.2-.3.1-.5.7-.5 1.7 0 .7.1 1.4.5 2v1.3c0 .6 0 1.1-.1 1.5-.3.2-.4.3-.6.2z"/><path class="st0" d="M53.5 57.8l6.9-7.7c1.1-.7 2.2-1.6 3.4-2.7.9-.9 1.6-1.3 1.9-1.3.5 0 1.1.6 1.7 1.7.6.4 1.3 1.3 2 2.7 1 1.8 1.6 2.8 1.7 2.9.6.4 1.3.7 2 .7 1.1 0 2.3-.5 3.6-1.5l2.9-2.8c-.1-.3-.2-.9-.3-1.7 0-.8-.1-1.7 0-2.5-.3.1-.8.4-1.4 1.1-.6.7-1.1 1.1-1.6 1-.3 0-.7-.1-.9-.3-.8-.5-1.5-1.6-2.2-3.3-.7-1.7-1.3-3.2-1.8-4.7-.7-.4-1.5-.6-2.3-.6-1.9 0-4.2 1.3-6.7 3.9-1.1 1.2-2.2 2.4-3.3 3.7-.5.5-.9 1-1.2 1.5-.4.6-.6.8-.8.8-.2-.4-.1-1.3.4-2.8l1.5-4.2c.3-.5.6-1.2.9-2.1.3-.9.5-1.8.5-2.7 0-.7-.1-1.4-.3-1.9-.5-1.3-1.2-2-2.2-2-.5 0-1.1.2-1.8.5l-1.8.9c-.8.9-1.9 2-3.4 3.5-2.6 2.6-4.4 4.7-5.3 6.4-.6.4-3.9 4-4 5.1 0 1-.8 4.6-.5 4.5.3-.1 4.6-4.4 5-5.1.3-.3.8-.9 1.6-1.7 1.1-1.2 1.9-2.1 2.3-2.6.4-.5.9-.8 1.5-.8.5 0 .7.3.7.9 0 .4-.2.9-.6 1.7-.1.7-.4 1.7-.8 3.1s-.6 2.2-.5 2.5c-.1.1-.3.7-.7 1.7-.4 1-.6 1.8-.6 2.3 0 .1.1.4.2.9-.2 1-.2 1.6 0 1.8.4.2 1.1.3 2.1.3 1.1-.2 1.9-.5 2.2-1.1z"/><path class="st0" d="M80.6 55.8c1 .8 1.9 1.4 2.7 1.7.8.3 1.8.5 2.8.5 1.8 0 4-.7 6.7-2.1 3.8-2 6-3.2 6.6-3.4.3-.5.5-1.6.5-3.4.1-.2.2-.5.2-.8-.5.1-1 .2-1.4.3-1.2.8-1.8 1.2-1.9 1.2-.8.5-1.5.9-2 1.3-1.6 1-3.7 1.4-6.2 1.4-1.2 0-2.1-.2-2.8-.7-.7-.4-1-1.1-1-2.1 0-.4.1-.9.3-1.5.6-.4 1-.6 1.2-.8.5-.3.9-.7 1.2-1.2 1.6-.7 3.2-2 4.9-4 1.7-1.9 2.5-3.2 2.4-3.7.6-.2 1-1 1-2.3 0-1.5-.3-2.4-.9-2.7-.4-.6-.9-1-1.4-1.1-.5-.2-1.1-.3-1.8-.3-.6 0-1.3.1-1.9.3-.6.2-1 .5-1.1.8-.7.4-1.5.9-2.4 1.6-.9.7-1.6 1.4-2.2 2.1-.4.2-.9.7-1.5 1.6-.6.7-1.1 1.6-1.6 2.5-.5.9-1.1 2.1-1.7 3.5-.6 1.4-.9 2.3-.9 2.8 0 2.8.3 4.9 1 6.3.4.7.8 1.5 1.2 2.2zm8.9-17.4c.6.3.5.9-.2 1.9-.7.9-1.2 1.5-1.6 1.7-.3.9-1 1.3-2.1 1.2-.4.1-.5 0-.5-.3 0-.2.3-.8.7-1.5.6-.7 1.2-1.4 2-2 .7-.7 1.3-1 1.7-1z"/><path class="st0" d="M105.3 53.4c-.7-.6-1.3-1.2-1.7-1.7-.7-1-1-2-1-3.1-.1-.3-.4-.6-.9-.8-.5-.2-.9-.3-1.2-.2-.5.2-.9.8-1.2 1.7-.3.8-.5 1.6-.8 2.4 0 .4.2 1 .8 1.9s.8 1.5.8 1.9c.2.6.7 1.2 1.5 1.8 0 1.1.8 1.7 2.3 1.7 1 0 1.9-.3 2.6-1.1 1.5-1.6 3.1-3.7 4.9-6.2l2.9-4.1c.3-.1.4 0 .5.5.1.4 0 .9-.3 1.4 0 .8.2 1.7.6 2.9.4 1.2.8 2.5 1.3 3.9.6.7 1.4 1.1 2.4 1.1.7 0 1.6-.2 2.4-.6.4-.2.9-.5 1.7-1.1.3-.2 1.2-1 2.8-2.2 1.3-1 2.1-1.8 2.2-2.3s.2-1.1.2-1.4c0-.7-.1-1.4-.2-1.9s-.3-.7-.5-.7c-1.1 1.4-2.2 2.3-3.4 2.8-1.2.5-2.1.6-2.8.3-.2-.3-.4-.9-.3-1.7 0-.6.2-1.5.4-2.8s.4-2.3.4-2.8c.5-1.9 1-3.3 1.3-4.4s.6-1.8.9-2.2c-.1-.3-.1-.6-.1-.8-1-1.2-2.3-1.7-3.7-1.6-1.8.7-3.2 2.1-4.4 4-2.9 4.9-4.8 7.6-5.8 8.2-.5 1.3-1.1 2.6-1.7 3.9-1.1 1.9-2 3-2.9 3.3z"/><path class="st0" d="M133.7 57.7c1.1.5 2.1.7 3.1.7 2.6 0 5-.9 7.1-2.8 2.3-2.1 3.5-4.9 3.6-8.3v-2c-.1-.5-.2-.9-.4-1.4 0-.2-.2-.6-.5-1.2s-.6-1.1-.7-1.5c-.5-.8-1-1.3-1.3-1.4-.3-.1-.7-.3-1.1-.4-.3.1-.8.2-1.4.2-.6 0-1 .1-1.4.3-.3.4-.5.8-.5 1.2 0 .9.2 1.5.7 1.8-.1.2.1.5.4.9.3.4.5.7.6.8.6.7.9 1.5.9 2.4 0 .8-.3 1.7-.8 2.8-.6 1-1 1.7-1.2 1.9-.3.1-.7.3-1.3.8s-1 .6-1.1.4c-.4-.6-.5-1.6-.5-3 0-2.4.5-4.7 1.2-7-.1-.6.1-1.6.5-2.9 1.1-3.5 1.6-5.5 1.6-6s-.1-.9-.3-1.2c-.5-.4-1.3-.4-2.4.1-.5.2-1.1.6-1.9 1.2-1.3 2.2-2.7 4.4-4 6.6-1.9 3-3.5 5-4.9 6.1-.4.3-.8.8-1 1.4-.2.7-.3 1.3-.3 2 0 1.2.1 1.9.4 1.9.3 0 1-.5 2-1.5l1.9-2c.2.6.5 1.1.8 1.7.5 4.1 1.1 6.6 2.2 7.4z"/><path class="st0" d="M148.2 46.5c-.8.4-1.2 1-1.2 1.8 0 1.1 0 2.2-.1 3.3.2 0 .5 0 .8-.1.3-.1.7-.2 1-.3.2 1.1.3 2 .5 2.8s.4 1.6.8 2.4l2 1.6c1.2 1 2.7 1.5 4.4 1.5 1.7 0 3.6-.4 5.7-1.4 1.4-.7 3.1-1.7 5.2-3.1.9-.5 1.7-1 2.5-1.6 1.1-1 1.8-1.8 2.1-2.5 0-.2 0-.6-.1-1.2s0-1.1.2-1.3c-.5-.7-.9-1.1-1-1.1-.1 0-.3.1-.4.5 0 .8-1.7 2.2-5 4.1-1.2.7-2.4 1.3-3.6 1.9-.6.2-1.4.3-2.5.3s-2.1-.2-2.8-.6c-.8-.4-1.1-1-1.1-1.8V50c0-1.9 1.3-3.7 3.7-5.4 3-2 4.5-3.1 4.6-3.3 1.8-.8 3-1.6 3.8-2.4 1-1 1.5-2.1 1.6-3.2 0-.7-.2-1.5-.5-2.3-1.2-.2-2.5.1-4 .9-1 .5-1.9 1.2-2.6 1.8-1.6.7-3.7 2.1-6.4 4.1s-4.1 3.3-4.1 3.9c-.8.2-1.7.8-2.8 1.8-.2.1-.4.3-.7.6z"/><path class="st0" d="M177.9 57.6c.9.4 1.7.6 2.5.6 2 0 4.1-1 6.2-3.2 1.1-1.2 2.6-3 4.4-5.6l1 1c.9 2.8 2.6 4.3 4.9 4.3 1.2 0 2.2-.2 3.1-.7.9-.5 1.9-1 2.8-1.5.8-.2 1.2-1.2 1.3-3.2 0-.7 0-1.3-.1-1.7-.1-.4-.2-.6-.3-.6-.1.1-.7.5-1.7 1.2s-1.7 1.1-2.3 1.1c-.6 0-1-.3-1.3-.8s-.6-1.5-.7-2.9c.1-.6.1-1 .1-1.4 0-.9-.2-1.7-.5-2.4-.4-.7-1-1-2-1.1-1.1 0-2.1.7-3.2 2.2l-3 4.2-3.9 4.5c-.3.1-.7.3-1.3.8s-1 .6-1.1.4c-.4-.6-.5-1.6-.5-3 0-2.4.5-4.7 1.2-7 0-.6.4-1.8 1-3.6s1-3.1 1-3.7c0-.5-.1-.9-.3-1.1-.2-.2-.5-.3-.9-.3s-1 .1-1.6.4c-.6.3-1.2.7-1.8 1.1-1.3 2-2.6 3.9-4 5.7-1.8 2.3-3.5 4.1-4.9 5.2-.4.3-.8.8-1 1.4-.2.7-.3 1.3-.3 2 0 1.2.1 1.9.4 1.9.3 0 1-.5 2-1.5l1.9-2c.2.6.5 1.1.8 1.7.4 4.3 1 6.8 2.1 7.6z"/><path class="st0" d="M215.3 45.3c.2-1.1 1.1-3.3 2.6-6.9.7-1.6 1.1-2.7 1.1-3.3 0-.3-.2-.7-.5-1.2s-.8-.7-1.2-.8c-.4-.1-.8.1-1.4.4-.1.1-.6.4-1.5 1l-1.6 1.7c-.1.1-.2.3-.5.6s-.6.7-.8 1.1c-.2.4-1.1 1.6-2.7 3.4-.9 1-1.4 1.7-1.5 2.1l-2 2c-1.6 1.5-2.4 2.9-2.4 4 0 .6.1 1.2.4 1.8l.4.6c.8-.6 1.6-1.3 2.4-1.9.8-.7 1.3-1.3 1.7-1.8l1.3-1.8-.9 3.4c-.3 1.2-.6 2-.7 2.3-.1.9-.4 2.1-.8 3.8s-.6 2.7-.6 3.1c0 .7.3 1.2 1.1 1.3s1.3.2 1.7.2h1.7c.6 0 1.1-.4 1.5-1.2.4-.8.6-1.9.6-3.1 0-.9.2-2 .4-3.2s.6-2.2.9-2.7c.1-.1.3 0 .6.1s.6.2.8.4c.5.7.9 1.2 1.2 1.5.5.6 1 1.1 1.6 1.3.3.4.7.8 1.1 1.1.3.3.8.4 1.3.4.2 0 .6-.1 1.2-.2.7-.8 1.4-1.4 2-1.9.3-.2.5-.4.8-.7-.1.3-.1.7-.1 1.3 0 .9.1 1.9.5 2.7.3.9.6 1.5.8 2 .7.8 1.4 1.1 2.1 1.2.6 0 1-.1 1.3-.2s1.3-.9 3-2.2c1.2-.9 2.3-1.7 3.4-2.7 1.8-1.5 2.5-2.6 2.3-3.5V48c-.2-.2-.4-.4-.6-.7-1.3 1.7-2.5 2.9-3.3 3.6-1.2 1-2.1 1.3-2.8 1.1-.4-.5-.5-1.5-.5-2.9 0-1.2.2-2.7.5-4.4.4-1.1.7-2 .9-2.7s.4-1.3.4-1.6c0-1-.6-1.6-1.6-1.8-.9-.1-1.8 0-2.7.3s-1.6 1.4-2.4 3.1c-.8 1.7-1.1 3.2-1.2 4.3-.4.5-.8 1-1.1 1.4-.4.5-.7.7-1 .7-.3 0-.7-.2-1.1-.7-.5-.7-.8-1.2-1-1.6-.4-.7-.8-1.1-1.3-1.3-.1-.1-.4-.2-.8-.3s-.7 0-.9.3l-2.1.5zM68.7 12.2l-1.5 1.4c-1-1.1-2.1-1.6-3.4-1.6-1.1 0-1.9.4-2.7 1.1-.7.7-1.1 1.6-1.1 2.7 0 .7.2 1.4.5 2s.8 1 1.4 1.3c.6.3 1.2.5 1.9.5.6 0 1.2-.1 1.7-.3s1.1-.6 1.7-1.2l1.4 1.5c-.8.8-1.6 1.3-2.3 1.6-.7.3-1.5.5-2.5.5-1.7 0-3.1-.5-4.2-1.6S58 17.6 58 15.9c0-1.1.2-2.1.7-2.9.5-.9 1.2-1.5 2.1-2.1.9-.5 1.9-.8 3-.8.9 0 1.8.2 2.6.6s1.7.8 2.3 1.5zm9.7 5.5h-6.6c.1.6.3 1 .8 1.4.4.3.9.5 1.6.5.8 0 1.4-.3 2-.8l1.7.8c-.4.6-.9 1.1-1.5 1.3s-1.3.4-2.1.4c-1.3 0-2.3-.4-3.1-1.2-.8-.8-1.2-1.8-1.2-3s.4-2.3 1.2-3.1c.8-.8 1.8-1.2 3-1.2 1.3 0 2.3.4 3.1 1.2s1.2 1.9 1.2 3.2l-.1.5zm-2-1.6c-.1-.5-.4-.8-.8-1.1s-.9-.4-1.4-.4c-.6 0-1.1.2-1.5.5-.3.2-.5.6-.7 1.1h4.4zm2.9-3h7.6V15h-2.7v6.2h-2V15h-2.8v-1.9zm11 2.9h.6c.9 0 1.5.1 2 .2s.8.4 1.2.8c.3.4.5.9.5 1.6 0 .6-.1 1.2-.4 1.6-.3.4-.6.7-1.1.8-.4.1-1.1.2-1.9.2h-2.9v-8.1h2V16zm0 3.7h.6c.4 0 .6 0 .8-.1.2-.1.3-.2.4-.3s.2-.3.2-.5c0-.7-.4-1-1.2-1h-.8v1.9zm18-5l-1.7.9c-.3-.3-.6-.6-.9-.7-.3-.1-.7-.2-1.1-.2-.8 0-1.4.2-1.9.7-.5.5-.7 1-.7 1.8 0 .7.2 1.3.7 1.7s1.1.7 1.8.7c.9 0 1.6-.3 2.1-.9l1.6 1.1c-.9 1.1-2.1 1.7-3.7 1.7-1.4 0-2.6-.4-3.4-1.3-.8-.8-1.2-1.8-1.2-3 0-.8.2-1.5.6-2.2.4-.7.9-1.2 1.6-1.6s1.5-.6 2.4-.6c.8 0 1.5.2 2.2.5.7.4 1.2.8 1.6 1.4zm7.9-1.6h2v8.1h-2v-.9c-.4.4-.8.7-1.2.8s-.8.3-1.3.3c-1.1 0-2-.4-2.7-1.2s-1.1-1.8-1.1-3c0-1.3.4-2.3 1.1-3.1.7-.8 1.6-1.2 2.7-1.2.5 0 .9.1 1.4.3.4.2.8.5 1.2.8v-.9zm-2.2 1.7c-.6 0-1.2.2-1.6.7-.4.4-.6 1-.6 1.7s.2 1.3.6 1.7.9.7 1.6.7c.6 0 1.2-.2 1.6-.7.4-.4.6-1 .6-1.8 0-.7-.2-1.3-.6-1.7-.4-.4-.9-.6-1.6-.6zm13.5 6.4h-2.1l-2-5.1-2.1 5.1h-2.1l3.5-8.1h1.3l3.5 8.1zm4.9-8.3c.8 0 1.5.2 2.2.6.7.4 1.2.9 1.6 1.6.4.7.6 1.4.6 2.1 0 .8-.2 1.5-.6 2.2-.4.7-.9 1.2-1.6 1.6-.7.4-1.4.6-2.2.6-1.2 0-2.2-.4-3-1.2s-1.2-1.8-1.2-3c0-1.3.5-2.3 1.4-3.2.8-1 1.8-1.3 2.8-1.3zm.1 1.9c-.6 0-1.2.2-1.6.7-.4.4-.6 1-.6 1.7s.2 1.3.6 1.7c.4.4.9.7 1.6.7s1.2-.2 1.6-.7c.4-.4.6-1 .6-1.7s-.2-1.3-.6-1.7c-.4-.5-1-.7-1.6-.7zm8 1.2h3.1v-2.9h2v8.1h-2v-3.4h-3.1v3.4h-2v-8.1h2V16zm10.9-3.1c.8 0 1.5.2 2.2.6.7.4 1.2.9 1.6 1.6.4.7.6 1.4.6 2.1 0 .8-.2 1.5-.6 2.2-.4.7-.9 1.2-1.6 1.6-.7.4-1.4.6-2.2.6-1.2 0-2.2-.4-3-1.2s-1.2-1.8-1.2-3c0-1.3.5-2.3 1.4-3.2.8-1 1.8-1.3 2.8-1.3zm.1 1.9c-.6 0-1.2.2-1.6.7-.4.4-.6 1-.6 1.7s.2 1.3.6 1.7c.4.4.9.7 1.6.7s1.2-.2 1.6-.7c.4-.4.6-1 .6-1.7s-.2-1.3-.6-1.7c-.5-.5-1-.7-1.6-.7zm5.9 6.4v-8.1h3.3c1.1 0 1.8.2 2.2.6.4.4.6.9.6 1.4 0 .8-.4 1.4-1.2 1.7 1.1.4 1.6 1.1 1.6 2.1 0 .6-.1 1-.4 1.4s-.6.6-1.1.7c-.4.1-1 .2-1.8.2h-3.2zm2.1-4.9h.8c.3 0 .6-.1.8-.3.2-.2.3-.4.3-.6 0-.3-.1-.5-.3-.7-.2-.2-.4-.3-.6-.3h-1v1.9zm0 3.4h1c.4 0 .7-.1.8-.3.2-.2.2-.4.2-.5 0-.3-.1-.5-.3-.7s-.5-.3-1-.3h-.9v1.8zm10.4-6.6h2v3l2.8-3h2.5l-3.6 4 3.7 4.2h-2.7l-2.4-2.9-.2.3v2.6h-2v-8.2zm10.2 0v.9c.4-.4.8-.6 1.2-.8.4-.2.9-.3 1.4-.3 1.1 0 2 .4 2.7 1.2.7.8 1.1 1.8 1.1 3.1 0 1.2-.4 2.2-1.2 3s-1.7 1.2-2.7 1.2c-.5 0-.9-.1-1.3-.3-.4-.2-.8-.4-1.2-.8v3.8h-2v-11h2zm2.2 1.7c-.6 0-1.2.2-1.6.7-.4.4-.6 1-.6 1.7s.2 1.3.6 1.8c.4.4 1 .7 1.6.7.6 0 1.1-.2 1.6-.7.4-.5.6-1 .6-1.7s-.2-1.3-.6-1.7c-.4-.6-1-.8-1.6-.8zm11.9-1.7h2v8.1h-2v-.9c-.4.4-.8.7-1.2.8-.4.2-.8.3-1.3.3-1.1 0-2-.4-2.7-1.2-.8-.8-1.2-1.8-1.2-3 0-1.3.4-2.3 1.1-3.1.7-.8 1.6-1.2 2.7-1.2.5 0 .9.1 1.4.3.4.2.8.5 1.2.8v-.9zm-2.1 1.7c-.6 0-1.2.2-1.6.7-.4.4-.6 1-.6 1.7s.2 1.3.6 1.7.9.7 1.6.7c.6 0 1.2-.2 1.6-.7.4-.4.6-1 .6-1.8 0-.7-.2-1.3-.6-1.7-.4-.4-1-.6-1.6-.6zm14.2-.1l-1.7.9c-.3-.3-.6-.6-.9-.7-.3-.1-.7-.2-1.1-.2-.8 0-1.4.2-1.9.7-.5.5-.7 1-.7 1.8 0 .7.2 1.3.7 1.7s1.1.7 1.8.7c.9 0 1.6-.3 2.1-.9l1.6 1.1c-.9 1.1-2.1 1.7-3.7 1.7-1.4 0-2.6-.4-3.4-1.3-.8-.8-1.2-1.8-1.2-3 0-.8.2-1.5.6-2.2.4-.7.9-1.2 1.6-1.6s1.5-.6 2.4-.6c.8 0 1.5.2 2.2.5.7.4 1.2.8 1.6 1.4zm5.7-1.8c.8 0 1.5.2 2.2.6s1.2.9 1.6 1.6c.4.7.6 1.4.6 2.1 0 .8-.2 1.5-.6 2.2-.4.7-.9 1.2-1.6 1.6-.7.4-1.4.6-2.2.6-1.2 0-2.2-.4-3-1.2s-1.2-1.8-1.2-3c0-1.3.5-2.3 1.4-3.2.8-1 1.7-1.3 2.8-1.3zm0 1.9c-.6 0-1.2.2-1.6.7-.4.4-.6 1-.6 1.7s.2 1.3.6 1.7c.4.4.9.7 1.6.7.6 0 1.2-.2 1.6-.7.4-.4.6-1 .6-1.7s-.2-1.3-.6-1.7c-.4-.5-1-.7-1.6-.7zm5.2-1.7h7.6V15h-2.7v6.2h-2V15h-2.8v-1.9zm11 2.9h.6c.9 0 1.5.1 2 .2s.8.4 1.2.8c.3.4.5.9.5 1.6 0 .6-.1 1.2-.4 1.6-.3.4-.6.7-1.1.8s-1.1.2-1.9.2h-2.9v-8.1h2V16zm0 3.7h.6c.4 0 .6 0 .8-.1.2-.1.3-.2.4-.3s.2-.3.2-.5c0-.7-.4-1-1.2-1h-.8v1.9zm5.6-6.6h2v8.1h-2v-8.1z"/></svg>