<?xml version="1.0" encoding="utf-8"?>
<!-- Generator: Adobe Illustrator 17.0.0, SVG Export Plug-In . SVG Version: 6.00 Build 0)  -->
<!DOCTYPE svg PUBLIC "-//W3C//DTD SVG 1.1//EN" "http://www.w3.org/Graphics/SVG/1.1/DTD/svg11.dtd">
<svg version="1.1" id="Слой_1" xmlns="http://www.w3.org/2000/svg" xmlns:xlink="http://www.w3.org/1999/xlink" x="0px" y="0px"
	 width="300px" height="300px" viewBox="0 0 300 300" enable-background="new 0 0 300 300" xml:space="preserve">
<g>
	<path d="M150.018,298.956c-82.141,0-148.967-66.822-148.967-148.958S67.877,1.04,150.018,1.04
		c82.141,0,148.967,66.822,148.967,148.958S232.159,298.956,150.018,298.956z M150.018,9.04C72.289,9.04,9.051,72.273,9.051,149.998
		s63.238,140.958,140.967,140.958c77.73,0,140.967-63.233,140.967-140.958S227.748,9.04,150.018,9.04z"/>
</g>
<g>
	<path fill="#030104" d="M186.095,123.077c-2.84,0-5.154-2.314-5.154-5.154v-10.308c0-2.84,2.314-5.154,5.154-5.154h10.308
		c2.84,0,5.154,2.314,5.154,5.154v10.308c0,2.84-2.314,5.154-5.154,5.154H186.095z"/>
	<path fill="#030104" d="M150.018,134.354c-3.742,0-7.195,1.098-10.169,2.902c0.928-0.289,1.891-0.479,2.907-0.479
		c5.504,0,9.962,4.458,9.962,9.968c0,5.494-4.458,9.962-9.962,9.962s-9.962-4.463-9.962-9.962c0-1.026,0.201-1.989,0.484-2.912
		c-1.814,2.974-2.907,6.427-2.907,10.169c0,10.859,8.787,19.652,19.652,19.652c10.849,0,19.652-8.787,19.652-19.652
		S160.867,134.354,150.018,134.354z"/>
	<g>
		<path fill="#030104" d="M150.018,123.077c17.075,0,30.923,13.843,30.923,30.923s-13.854,30.923-30.923,30.923
			c-17.075,0-30.923-13.843-30.923-30.923S132.943,123.077,150.018,123.077 M150.018,112.769c-22.734,0-41.231,18.497-41.231,41.231
			s18.497,41.231,41.231,41.231s41.231-18.497,41.231-41.231S172.752,112.769,150.018,112.769L150.018,112.769z"/>
	</g>
	<path fill="#030104" d="M191.893,87h-83.75c-13.879,0-25.125,11.246-25.125,25.125v83.75c0,13.879,11.246,25.125,25.125,25.125
		h83.75c13.879,0,25.125-11.246,25.125-25.125v-83.75C217.018,98.246,205.772,87,191.893,87z M206.71,133.385H173.02
		c4.912,5.479,7.921,12.684,7.921,20.615c0,17.08-13.854,30.923-30.923,30.923c-17.075,0-30.923-13.843-30.923-30.923
		c0-7.932,3.01-15.142,7.921-20.615H93.326v-21.26c0-8.169,6.648-14.817,14.817-14.817h83.75c8.174,0,14.817,6.648,14.817,14.817
		V133.385z"/>
</g>
</svg>
