<?xml version="1.0" encoding="utf-8"?>
<!-- Generator: Adobe Illustrator 17.0.0, SVG Export Plug-In . SVG Version: 6.00 Build 0)  -->
<!DOCTYPE svg PUBLIC "-//W3C//DTD SVG 1.1//EN" "http://www.w3.org/Graphics/SVG/1.1/DTD/svg11.dtd">
<svg version="1.1" id="Слой_1" xmlns="http://www.w3.org/2000/svg" xmlns:xlink="http://www.w3.org/1999/xlink" x="0px" y="0px"
	 width="300px" height="300px" viewBox="0 0 300 300" enable-background="new 0 0 300 300" xml:space="preserve">
<g>
	<path d="M234.487,196.239c-0.214-0.462-0.414-0.844-0.599-1.151c-3.068-5.526-8.932-12.309-17.587-20.351l-0.183-0.184l-0.092-0.09
		l-0.093-0.093h-0.093c-3.928-3.745-6.416-6.262-7.457-7.551c-1.906-2.456-2.333-4.941-1.291-7.46
		c0.736-1.903,3.5-5.921,8.287-12.061c2.518-3.254,4.512-5.862,5.984-7.826c10.62-14.119,15.225-23.142,13.812-27.071l-0.549-0.918
		c-0.369-0.553-1.32-1.058-2.853-1.52c-1.536-0.46-3.5-0.536-5.895-0.23l-26.518,0.183c-0.43-0.152-1.043-0.138-1.842,0.046
		c-0.798,0.184-1.197,0.277-1.197,0.277l-0.462,0.231l-0.366,0.277c-0.307,0.183-0.645,0.505-1.013,0.966
		c-0.367,0.459-0.673,0.998-0.919,1.611c-2.887,7.428-6.17,14.333-9.854,20.717c-2.271,3.807-4.357,7.105-6.262,9.899
		c-1.902,2.792-3.499,4.85-4.787,6.168c-1.29,1.32-2.454,2.378-3.5,3.176c-1.044,0.799-1.841,1.137-2.393,1.013
		c-0.553-0.124-1.074-0.246-1.567-0.369c-0.859-0.553-1.55-1.305-2.07-2.256c-0.523-0.951-0.875-2.149-1.059-3.591
		c-0.183-1.444-0.292-2.685-0.323-3.729c-0.029-1.043-0.015-2.517,0.047-4.42c0.064-1.904,0.093-3.192,0.093-3.867
		c0-2.333,0.045-4.865,0.137-7.597c0.093-2.732,0.168-4.896,0.231-6.49c0.063-1.596,0.092-3.285,0.092-5.065
		s-0.108-3.176-0.323-4.19c-0.212-1.012-0.536-1.994-0.964-2.947c-0.431-0.951-1.061-1.687-1.888-2.21
		c-0.829-0.522-1.859-0.936-3.084-1.244c-3.254-0.736-7.397-1.135-12.432-1.196c-11.417-0.123-18.753,0.615-22.007,2.211
		c-1.289,0.674-2.456,1.596-3.499,2.761c-1.105,1.351-1.259,2.088-0.462,2.209c3.684,0.552,6.291,1.872,7.826,3.959l0.553,1.106
		c0.43,0.798,0.86,2.21,1.29,4.236c0.429,2.025,0.706,4.266,0.828,6.72c0.306,4.482,0.306,8.318,0,11.51
		c-0.307,3.193-0.598,5.678-0.875,7.459c-0.277,1.78-0.691,3.223-1.243,4.327c-0.553,1.105-0.921,1.78-1.106,2.025
		c-0.184,0.245-0.338,0.4-0.46,0.46c-0.798,0.306-1.628,0.462-2.487,0.462c-0.86,0-1.903-0.43-3.131-1.29
		c-1.227-0.86-2.501-2.041-3.821-3.545c-1.32-1.504-2.809-3.607-4.467-6.308c-1.657-2.701-3.376-5.893-5.156-9.576l-1.473-2.671
		c-0.921-1.718-2.179-4.22-3.775-7.504c-1.597-3.285-3.009-6.462-4.236-9.531c-0.491-1.289-1.227-2.27-2.209-2.946l-0.461-0.277
		c-0.306-0.245-0.798-0.505-1.473-0.783c-0.676-0.277-1.381-0.476-2.118-0.598l-25.229,0.183c-2.578,0-4.327,0.584-5.248,1.751
		l-0.369,0.552c-0.184,0.307-0.277,0.798-0.277,1.474c0,0.675,0.184,1.504,0.553,2.486c3.683,8.656,7.688,17.004,12.016,25.046
		c4.327,8.041,8.088,14.519,11.279,19.427c3.192,4.911,6.445,9.547,9.76,13.904c3.315,4.359,5.509,7.152,6.583,8.379
		c1.075,1.229,1.919,2.149,2.533,2.762l2.302,2.209c1.473,1.474,3.637,3.238,6.491,5.294c2.855,2.057,6.016,4.083,9.484,6.079
		c3.469,1.993,7.504,3.62,12.109,4.878c4.604,1.259,9.085,1.765,13.443,1.521h10.589c2.148-0.185,3.775-0.861,4.88-2.026
		l0.366-0.462c0.246-0.366,0.477-0.936,0.69-1.702c0.215-0.767,0.323-1.613,0.323-2.532c-0.063-2.639,0.138-5.018,0.597-7.135
		c0.459-2.117,0.982-3.713,1.567-4.788c0.585-1.074,1.245-1.98,1.979-2.715c0.736-0.736,1.26-1.182,1.568-1.336
		c0.306-0.154,0.55-0.259,0.734-0.322c1.473-0.491,3.207-0.015,5.204,1.428c1.995,1.443,3.867,3.224,5.617,5.341
		c1.75,2.119,3.852,4.496,6.307,7.135c2.457,2.64,4.604,4.602,6.445,5.893l1.841,1.105c1.229,0.737,2.825,1.413,4.79,2.026
		c1.961,0.613,3.679,0.767,5.155,0.46l23.571-0.368c2.331,0,4.145-0.386,5.432-1.152c1.289-0.767,2.055-1.613,2.302-2.532
		c0.246-0.92,0.26-1.965,0.047-3.132C234.916,197.513,234.701,196.699,234.487,196.239z"/>
</g>
<g>
	<path d="M150.018,298.956c-82.141,0-148.967-66.822-148.967-148.958S67.877,1.04,150.018,1.04
		c82.141,0,148.967,66.822,148.967,148.958S232.159,298.956,150.018,298.956z M150.018,9.04C72.289,9.04,9.051,72.273,9.051,149.998
		s63.238,140.958,140.967,140.958c77.73,0,140.967-63.233,140.967-140.958S227.748,9.04,150.018,9.04z"/>
</g>
</svg>
