<?xml version="1.0" encoding="utf-8"?>
<!-- Generator: Adobe Illustrator 17.0.0, SVG Export Plug-In . SVG Version: 6.00 Build 0)  -->
<!DOCTYPE svg PUBLIC "-//W3C//DTD SVG 1.1//EN" "http://www.w3.org/Graphics/SVG/1.1/DTD/svg11.dtd">
<svg version="1.1" id="Layer_1" xmlns="http://www.w3.org/2000/svg" xmlns:xlink="http://www.w3.org/1999/xlink" x="0px" y="0px"
	 width="100px" height="100px" viewBox="0 0 100 100" enable-background="new 0 0 100 100" xml:space="preserve">
<path fill="#6CA9E0" d="M7.115,25.792c18.258,11.837,21.453,21.81,23.328,24.071c4.14-0.437,6.622-3.716,9.559-3.906l3.476,2.007
	c-0.203,0.647-0.313,1.335-0.313,2.05c0,0.682,0.101,1.341,0.287,1.962l-3.45,1.992c-2.937-0.189-5.419-3.468-9.559-3.906
	c-1.875,2.261-5.07,12.234-23.328,24.071c-0.285,0.185,0.207,1.038,0.51,0.883c19.38-9.893,29.615-7.674,32.51-8.168
	c1.691-3.804,0.093-7.593,1.397-10.231l3.433-1.982c0.919,1.001,2.133,1.725,3.504,2.039v3.949
	c-1.632,2.448-5.713,2.959-8.162,6.325c1.02,2.755,8.06,10.508,9.182,32.238c0.018,0.34,1.003,0.34,1.02,0
	c1.122-21.73,8.162-29.484,9.182-32.238c-2.448-3.367-6.529-3.877-8.162-6.325v-3.949c1.371-0.314,2.585-1.038,3.504-2.039
	l3.433,1.982c1.304,2.638-0.294,6.427,1.397,10.231c2.896,0.494,13.13-1.726,32.51,8.168c0.303,0.155,0.795-0.698,0.51-0.883
	c-18.258-11.837-21.453-21.81-23.328-24.071c-4.14,0.437-6.622,3.716-9.559,3.906l-3.45-1.992c0.186-0.622,0.287-1.28,0.287-1.962
	c0-0.714-0.11-1.403-0.313-2.05l3.476-2.007c2.937,0.189,5.419,3.468,9.559,3.906c1.875-2.261,5.07-12.234,23.328-24.071
	c0.285-0.185-0.207-1.038-0.51-0.884c-19.38,9.893-29.615,7.674-32.51,8.168c-1.691,3.804-0.093,7.593-1.397,10.231l-3.496,2.018
	c-0.912-0.966-2.101-1.666-3.441-1.973v-4.051c1.632-2.448,5.713-2.959,8.162-6.325c-1.02-2.755-8.06-10.508-9.182-32.238
	c-0.018-0.34-1.003-0.34-1.02,0c-1.122,21.73-8.162,29.484-9.182,32.238c2.448,3.367,6.529,3.877,8.162,6.325v4.051
	c-1.34,0.307-2.53,1.007-3.441,1.973l-3.496-2.018c-1.304-2.638,0.294-6.427-1.397-10.231c-2.896-0.494-13.13,1.726-32.51-8.168
	C7.322,24.754,6.83,25.607,7.115,25.792z M37.425,63.584c-2.481-0.217-9.415,0.017-14.329,1.911
	c4.098-3.308,7.767-9.196,8.82-11.453c1.608,0.132,4.226,2.626,6.112,2.833C37.264,58.612,38.115,62.126,37.425,63.584z
	 M68.084,54.042c1.053,2.257,4.722,8.145,8.82,11.453c-4.914-1.895-11.847-2.128-14.329-1.911c-0.689-1.458,0.161-4.972-0.603-6.709
	C63.858,56.668,66.476,54.174,68.084,54.042z M62.575,36.342c2.481,0.217,9.415-0.017,14.329-1.911
	c-4.098,3.308-7.767,9.196-8.82,11.453c-1.608-0.132-4.226-2.626-6.112-2.833C62.736,41.314,61.885,37.8,62.575,36.342z
	 M55.509,67.664c-1.428,2.04-4.693,8.162-5.509,13.365c-0.816-5.203-4.081-11.324-5.509-13.365c0.918-1.326,4.387-2.346,5.509-3.877
	C51.122,65.317,54.591,66.337,55.509,67.664z M44.491,32.262c1.428-2.04,4.693-8.162,5.509-13.365
	c0.816,5.203,4.081,11.324,5.509,13.365c-0.918,1.326-4.387,2.346-5.509,3.877C48.878,34.609,45.409,33.589,44.491,32.262z
	 M50,45.913c2.265,0,4.101,1.836,4.101,4.101c0,2.265-1.836,4.101-4.101,4.101c-2.265,0-4.101-1.836-4.101-4.101
	C45.899,47.749,47.735,45.913,50,45.913z M37.425,36.342c0.689,1.458-0.161,4.972,0.603,6.709c-1.886,0.207-4.504,2.701-6.112,2.833
	c-1.053-2.257-4.722-8.145-8.82-11.453C28.011,36.325,34.944,36.558,37.425,36.342z"/>
</svg>
