<?xml version="1.0" encoding="utf-8"?>
<!-- Generator: Adobe Illustrator 17.0.0, SVG Export Plug-In . SVG Version: 6.00 Build 0)  -->
<!DOCTYPE svg PUBLIC "-//W3C//DTD SVG 1.1//EN" "http://www.w3.org/Graphics/SVG/1.1/DTD/svg11.dtd">
<svg version="1.1" id="Layer_1" xmlns="http://www.w3.org/2000/svg" xmlns:xlink="http://www.w3.org/1999/xlink" x="0px" y="0px"
	 width="100px" height="100px" viewBox="0 0 100 100" enable-background="new 0 0 100 100" xml:space="preserve">
<path fill="#6CA9E0" d="M76.512,63.882c-1.477-0.624-3.169-1.83-3.169-1.83c-2.256-3.266-2.735-7.247-2.696-8.296
	c0.019-0.502-0.33-0.665-0.766-0.442c-4.21,2.147-8.795,1.661-8.795,1.661l-2.739-1.581l-1.966-3.419l0.007-0.011l-0.011,0.004
	l-0.014-0.024l1.973-3.431l2.739-1.581c0,0,4.585-0.486,8.795,1.661c0.436,0.223,0.785,0.059,0.766-0.442
	c-0.039-1.049,0.44-5.03,2.696-8.296c0,0,1.693-1.206,3.169-1.83l0.012,0.02c1.75-0.739,7.154,2.129,10.345,2.067
	c0.407-4.433,2.423-8.115,6.37-13.105c-6.295,0.924-10.492,0.828-14.535-1.036c-1.649,2.732-1.867,8.846-3.382,9.992
	c-1.278,0.967-3.169,1.83-3.169,1.83c-3.956,0.321-7.644-1.255-8.533-1.813c-0.425-0.267-0.741-0.047-0.766,0.442
	c-0.246,4.72-2.959,8.447-2.959,8.447l-2.739,1.581L53.2,44.444l-0.007-0.011l-0.002,0.011l-0.028,0l-1.985-3.424v-3.163
	c0,0,1.872-4.213,5.836-6.786c0.411-0.267,0.444-0.65,0-0.885c-0.928-0.491-4.136-2.896-5.836-6.483c0,0-0.198-2.069,0-3.66h0.024
	c0.235-1.885,5.42-5.131,6.963-7.925C54.529,9.55,52.348,5.963,50,0.049c-2.348,5.914-4.529,9.5-8.164,12.069
	c1.542,2.794,6.728,6.04,6.963,7.925c0.198,1.591,0,3.66,0,3.66c-1.7,3.587-4.908,5.992-5.836,6.483
	c-0.444,0.235-0.411,0.618,0,0.885c3.964,2.573,5.836,6.786,5.836,6.786v3.163l-1.978,3.412l-0.013,0l0.009,0.007l-0.014,0.024
	l-3.957,0.007l-2.739-1.581c0,0-2.713-3.728-2.959-8.447c-0.025-0.489-0.341-0.709-0.766-0.442
	c-0.889,0.558-4.576,2.134-8.533,1.813c0,0-1.891-0.863-3.169-1.83l0.012-0.02c-1.515-1.146-1.734-7.26-3.382-9.992
	c-4.043,1.864-8.239,1.959-14.535,1.036c3.947,4.99,5.963,8.672,6.37,13.105c3.191,0.061,8.595-2.806,10.345-2.067
	c1.477,0.624,3.169,1.83,3.169,1.83c2.256,3.266,2.735,7.247,2.696,8.296c-0.019,0.502,0.33,0.665,0.766,0.442
	c4.21-2.147,8.795-1.661,8.795-1.661l2.739,1.581l1.966,3.419l-0.007,0.011l0.011-0.004l0.014,0.024l-1.973,3.431l-2.739,1.581
	c0,0-4.585,0.486-8.795-1.661c-0.436-0.223-0.785-0.059-0.766,0.442c0.039,1.049-0.44,5.03-2.696,8.296c0,0-1.693,1.206-3.169,1.83
	l-0.012-0.02c-1.75,0.739-7.154-2.129-10.345-2.067c-0.407,4.433-2.423,8.115-6.37,13.105c6.295-0.924,10.492-0.828,14.535,1.036
	c1.649-2.732,1.867-8.846,3.382-9.992c1.278-0.967,3.169-1.83,3.169-1.83c3.956-0.321,7.644,1.255,8.533,1.813
	c0.425,0.267,0.741,0.047,0.766-0.442c0.246-4.719,2.959-8.447,2.959-8.447l2.739-1.581l3.944,0.007l0.007,0.011l0.002-0.011
	l0.028,0l1.985,3.424v3.163c0,0-1.872,4.213-5.836,6.786c-0.411,0.267-0.444,0.65,0,0.885c0.928,0.491,4.136,2.896,5.836,6.483
	c0,0,0.198,2.069,0,3.66h-0.024c-0.235,1.885-5.42,5.131-6.963,7.925c3.635,2.569,5.817,6.156,8.164,12.069
	c2.348-5.914,4.529-9.5,8.164-12.069c-1.542-2.794-6.728-6.04-6.963-7.925c-0.198-1.591,0-3.66,0-3.66
	c1.7-3.587,4.908-5.992,5.836-6.483c0.444-0.235,0.411-0.618,0-0.885c-3.964-2.573-5.836-6.786-5.836-6.786v-3.163l1.978-3.412
	l0.013,0l-0.009-0.007l0.014-0.024l3.957-0.007l2.739,1.581c0,0,2.713,3.728,2.959,8.447c0.025,0.489,0.341,0.709,0.766,0.442
	c0.889-0.558,4.576-2.134,8.533-1.813c0,0,1.891,0.863,3.169,1.83l-0.012,0.02c1.515,1.146,1.734,7.26,3.382,9.992
	c4.043-1.864,8.239-1.959,14.535-1.036c-3.947-4.99-5.963-8.672-6.37-13.105C83.666,61.753,78.262,64.621,76.512,63.882z
	 M80.085,29.955c0.14-0.63,0.295-1.322,0.463-1.98c2.018,0.541,4.08,0.756,6.245,0.746c-1.091,1.87-1.936,3.764-2.477,5.782
	c-0.654-0.183-1.331-0.396-1.947-0.589c-1.078-0.339-2.099-0.659-3.06-0.872C79.606,32.102,79.839,31.058,80.085,29.955z
	 M65.428,38.111c1.093,0.332,2.367,0.621,3.748,0.768c-0.564,1.269-0.95,2.518-1.209,3.63c-1.413-0.391-2.753-0.591-3.888-0.687
	C64.563,40.791,65.06,39.53,65.428,38.111z M17.63,33.913c-0.616,0.193-1.292,0.406-1.947,0.589
	c-0.54-2.018-1.386-3.911-2.477-5.782c2.165,0.01,4.228-0.205,6.245-0.746c0.168,0.658,0.323,1.35,0.463,1.98
	c0.246,1.103,0.479,2.147,0.775,3.086C19.728,33.254,18.708,33.574,17.63,33.913z M32.022,42.528
	c-0.259-1.112-0.646-2.361-1.209-3.63c1.381-0.146,2.655-0.436,3.748-0.768c0.368,1.419,0.865,2.68,1.349,3.71
	C34.775,41.937,33.435,42.137,32.022,42.528z M19.915,69.971c-0.14,0.63-0.295,1.322-0.463,1.98
	c-2.018-0.541-4.08-0.756-6.245-0.746c1.091-1.87,1.936-3.764,2.477-5.782c0.654,0.183,1.331,0.396,1.947,0.589
	c1.078,0.339,2.099,0.659,3.06,0.872C20.394,67.824,20.161,68.868,19.915,69.971z M34.572,61.815
	c-1.093-0.332-2.367-0.621-3.748-0.768c0.564-1.269,0.95-2.518,1.209-3.63c1.413,0.391,2.753,0.591,3.888,0.687
	C35.437,59.135,34.94,60.396,34.572,61.815z M47.715,13.905c-0.475-0.437-0.998-0.916-1.483-1.391
	c1.478-1.477,2.695-3.156,3.769-5.036c1.074,1.88,2.291,3.559,3.769,5.036c-0.486,0.475-1.008,0.955-1.484,1.391
	c-0.832,0.764-1.62,1.488-2.285,2.214C49.335,15.392,48.547,14.669,47.715,13.905z M47.449,30.676
	c0.833-0.781,1.721-1.74,2.539-2.862c0.817,1.122,1.705,2.082,2.539,2.862c-1.045,1.028-1.888,2.089-2.539,3.023
	C49.338,32.765,48.495,31.704,47.449,30.676z M52.285,86.021c0.475,0.437,0.998,0.916,1.484,1.391
	c-1.478,1.477-2.695,3.156-3.769,5.036c-1.074-1.88-2.291-3.559-3.769-5.036c0.486-0.475,1.008-0.955,1.483-1.391
	c0.832-0.764,1.62-1.488,2.285-2.214C50.665,84.534,51.453,85.257,52.285,86.021z M52.551,69.25
	c-0.833,0.781-1.721,1.74-2.539,2.862c-0.817-1.122-1.705-2.082-2.539-2.862c1.045-1.028,1.888-2.089,2.539-3.023
	C50.662,67.161,51.505,68.222,52.551,69.25z M52.508,51.411L50,52.859l-2.508-1.448v-2.896L50,47.067l2.508,1.448V51.411z
	 M65.439,61.795c-0.368-1.419-0.865-2.68-1.349-3.71c1.134-0.096,2.475-0.296,3.888-0.687c0.259,1.112,0.646,2.361,1.209,3.63
	C67.807,61.174,66.532,61.463,65.439,61.795z M80.548,71.952c-0.168-0.658-0.323-1.35-0.463-1.98
	c-0.246-1.103-0.479-2.147-0.775-3.086c0.962-0.213,1.982-0.533,3.06-0.872c0.616-0.193,1.292-0.406,1.947-0.589
	c0.54,2.018,1.386,3.911,2.477,5.782C84.628,71.196,82.566,71.41,80.548,71.952z"/>
</svg>
