<?xml version="1.0" encoding="utf-8"?>
<!-- Generator: Adobe Illustrator 17.0.0, SVG Export Plug-In . SVG Version: 6.00 Build 0)  -->
<!DOCTYPE svg PUBLIC "-//W3C//DTD SVG 1.1//EN" "http://www.w3.org/Graphics/SVG/1.1/DTD/svg11.dtd">
<svg version="1.1" id="Layer_1" xmlns="http://www.w3.org/2000/svg" xmlns:xlink="http://www.w3.org/1999/xlink" x="0px" y="0px"
	 width="100px" height="100px" viewBox="0 0 100 100" enable-background="new 0 0 100 100" xml:space="preserve">
<path fill="#6CA9E0" d="M81.88,53.22c-0.04-0.32-0.46-0.52-0.72-0.35c-3.13,2.16-12.08,6.22-17.94,2.84c-3.46-2-4.24-3.86-4.37-5.19
	l0.01,0c-0.01-0.16-0.03-0.33-0.03-0.52c0-0.19,0.02-0.37,0.03-0.52l-0.01,0c0.13-1.33,0.91-3.19,4.37-5.19
	c5.86-3.39,14.81,0.68,17.94,2.84c0.25,0.18,0.68-0.03,0.72-0.35c0.56-4.44,0.97-11.45,9.39-20.16c0.16-0.17,0.18-0.37,0.1-0.51
	c-0.08-0.14-0.26-0.22-0.49-0.17C79.12,28.88,72.85,25.73,68.73,24c-0.3-0.12-0.69,0.14-0.66,0.45c0.3,3.79-0.65,13.57-6.51,16.95
	c-3.46,2-5.46,1.74-6.67,1.19l0-0.01c-0.14-0.07-0.3-0.14-0.47-0.24c-0.16-0.1-0.31-0.2-0.44-0.29l0,0.01
	c-1.09-0.77-2.31-2.38-2.31-6.38c0-6.77,7.99-12.48,11.43-14.12c0.28-0.13,0.31-0.6,0.06-0.8c-3.56-2.71-9.43-6.56-12.77-18.22
	C50.32,2.34,50.16,2.22,50,2.22s-0.32,0.11-0.39,0.34c-3.34,11.66-9.2,15.51-12.77,18.22c-0.26,0.19-0.22,0.66,0.06,0.8
	c3.44,1.63,11.43,7.35,11.43,14.12c0,3.99-1.22,5.6-2.31,6.38l0-0.01c-0.13,0.09-0.27,0.19-0.44,0.29
	c-0.17,0.09-0.32,0.17-0.47,0.24l0,0.01c-1.21,0.55-3.22,0.81-6.67-1.19c-5.86-3.39-6.82-13.16-6.51-16.95
	c0.02-0.31-0.37-0.57-0.66-0.45c-4.13,1.73-10.4,4.89-22.16,1.95c-0.23-0.06-0.41,0.03-0.49,0.17c-0.08,0.14-0.06,0.34,0.1,0.51
	c8.43,8.72,8.83,15.72,9.39,20.16c0.04,0.32,0.46,0.52,0.72,0.35c3.13-2.16,12.08-6.22,17.94-2.84c3.46,2,4.24,3.86,4.37,5.19
	l-0.01,0c0.01,0.16,0.03,0.33,0.03,0.52c0,0.19-0.02,0.37-0.03,0.52l0.01,0c-0.13,1.33-0.91,3.19-4.37,5.19
	c-5.86,3.39-14.81-0.68-17.94-2.84c-0.25-0.18-0.68,0.03-0.72,0.35c-0.56,4.44-0.97,11.45-9.39,20.16c-0.16,0.17-0.18,0.37-0.1,0.51
	c0.08,0.14,0.26,0.22,0.49,0.17c11.76-2.94,18.03,0.21,22.16,1.95c0.3,0.12,0.69-0.14,0.66-0.45c-0.3-3.79,0.65-13.57,6.51-16.95
	c3.46-2,5.46-1.74,6.67-1.19l0,0.01c0.14,0.07,0.3,0.14,0.47,0.24c0.16,0.1,0.31,0.2,0.44,0.29l0-0.01
	c1.09,0.77,2.31,2.38,2.31,6.38c0,6.77-7.99,12.48-11.43,14.12c-0.28,0.13-0.31,0.6-0.06,0.8c3.56,2.71,9.43,6.56,12.77,18.22
	c0.06,0.23,0.23,0.34,0.39,0.34s0.32-0.11,0.39-0.34c3.34-11.66,9.2-15.51,12.77-18.22c0.26-0.19,0.22-0.66-0.06-0.8
	c-3.44-1.63-11.43-7.35-11.43-14.12c0-3.99,1.22-5.6,2.31-6.38l0,0.01c0.13-0.09,0.28-0.19,0.44-0.29c0.17-0.09,0.32-0.17,0.47-0.24
	l0-0.01c1.21-0.55,3.22-0.81,6.67,1.19c5.86,3.39,6.82,13.16,6.51,16.95c-0.02,0.31,0.37,0.57,0.66,0.45
	c4.13-1.73,10.4-4.89,22.16-1.95c0.23,0.06,0.41-0.03,0.49-0.17c0.08-0.14,0.06-0.34-0.1-0.51C82.85,64.66,82.44,57.66,81.88,53.22z
	 M72.69,30.84c2.28,0.67,5,1.21,8.26,1.29c-1.56,2.87-2.46,5.49-3.01,7.8c-2.2-0.85-4.73-1.55-7.35-1.81
	C71.67,35.72,72.32,33.17,72.69,30.84z M22.06,39.93c-0.56-2.31-1.45-4.93-3.01-7.8c3.26-0.08,5.98-0.62,8.26-1.29
	c0.37,2.33,1.02,4.88,2.11,7.27C26.8,38.37,24.27,39.08,22.06,39.93z M27.31,69.16c-2.28-0.67-5-1.21-8.26-1.29
	c1.56-2.87,2.46-5.49,3.01-7.8c2.2,0.85,4.73,1.55,7.35,1.81C28.33,64.28,27.68,66.83,27.31,69.16z M44.76,20.77
	c1.72-1.63,3.54-3.72,5.24-6.51c1.7,2.78,3.52,4.87,5.24,6.51c-1.83,1.48-3.71,3.32-5.24,5.46C48.47,24.09,46.59,22.25,44.76,20.77z
	 M55.24,79.23c-1.72,1.63-3.54,3.72-5.24,6.51c-1.7-2.78-3.52-4.87-5.24-6.51c1.83-1.48,3.71-3.32,5.24-5.46
	C51.53,75.91,53.41,77.75,55.24,79.23z M50,54.66c-2.57,0-4.66-2.09-4.66-4.66c0-2.57,2.09-4.66,4.66-4.66s4.66,2.09,4.66,4.66
	C54.66,52.57,52.57,54.66,50,54.66z M72.69,69.16c-0.37-2.33-1.02-4.88-2.11-7.27c2.62-0.26,5.15-0.97,7.35-1.81
	c0.56,2.31,1.45,4.93,3.01,7.8C77.69,67.95,74.97,68.48,72.69,69.16z"/>
</svg>
