<?xml version="1.0" encoding="utf-8"?>
<!-- Generator: Adobe Illustrator 17.0.0, SVG Export Plug-In . SVG Version: 6.00 Build 0)  -->
<!DOCTYPE svg PUBLIC "-//W3C//DTD SVG 1.1//EN" "http://www.w3.org/Graphics/SVG/1.1/DTD/svg11.dtd">
<svg version="1.1" id="Layer_1" xmlns="http://www.w3.org/2000/svg" xmlns:xlink="http://www.w3.org/1999/xlink" x="0px" y="0px"
	 width="100px" height="100px" viewBox="0 0 100 100" enable-background="new 0 0 100 100" xml:space="preserve">
<path fill="#6CA9E0" d="M79.12,62.511c-3.904-2.254-6.919-0.415-10.702-2.599c-0.664-0.384-0.221-1,1.002-1.266
	c2.729-0.594,4.087,0.126,7.333-0.865c1.843-0.563,4.16-2.696,7.118-5.002c-3.715-0.518-7.015-0.843-9.708,0.469
	c-4.075,1.986-4.426,3.73-6.999,4.42c-1.147,0.307-3.692-1.264-4.505-1.733c-1.767-1.02-2.196-4.746-2.196-4.746
	s-3.189,1.637-4.973,0.607c-0.928-0.536-1.348-1.257-1.473-1.889c0.134-0.726,0.735-1.352,1.473-1.779
	c1.784-1.03,4.973,0.607,4.973,0.607s0.429-3.726,2.196-4.746c0.813-0.469,3.39-2.032,4.505-1.733
	c2.573,0.689,2.924,2.434,6.999,4.42c2.693,1.312,5.993,0.987,9.708,0.469c-2.958-2.306-5.275-4.439-7.118-5.002
	c-3.246-0.991-4.604-0.271-7.333-0.865c-1.223-0.266-1.666-0.882-1.002-1.266c3.783-2.184,6.797-0.345,10.702-2.599
	c4.511-2.604,8.323-8.88,13.53-12.076c-5.371,2.911-12.712,3.075-17.223,5.679c-3.904,2.254-3.819,5.784-7.602,7.968
	c-0.664,0.384-0.976-0.308-0.595-1.5c0.85-2.66,2.153-3.476,2.918-6.783c0.434-1.878-0.255-4.951-0.773-8.665
	c-2.306,2.958-4.237,5.654-4.447,8.642c-0.318,4.522,1.017,5.699,0.328,8.271c-0.307,1.147-2.941,2.566-3.753,3.035
	c-1.767,1.02-5.208-0.471-5.208-0.471s-0.177,3.58-1.961,4.61c-0.928,0.536-1.763,0.539-2.373,0.331
	c-0.562-0.479-0.804-1.312-0.804-2.165c0-2.06,3.012-4.003,3.012-4.003s-3.012-2.235-3.012-4.275c0-0.938-0.065-3.951,0.752-4.768
	c1.883-1.883,3.57-1.315,7.327-3.851c2.483-1.676,3.851-4.697,5.261-8.173c-3.476,1.409-6.482,2.348-7.891,3.664
	c-2.481,2.315-2.536,3.851-4.415,5.918c-0.842,0.926-1.597,1.002-1.597,0.235c0-4.368,3.1-6.059,3.1-10.567
	c0-5.208-3.529-11.648-3.693-17.755c-0.164,6.107-3.693,12.547-3.693,17.755c0,4.508,3.1,6.199,3.1,10.567
	c0,0.767-0.755,0.691-1.597-0.235c-1.879-2.067-1.934-3.603-4.415-5.918c-1.409-1.315-4.415-2.255-7.891-3.664
	c1.409,3.476,2.778,6.497,5.261,8.173c3.757,2.536,5.444,1.968,7.327,3.851c0.84,0.84,0.751,3.829,0.751,4.768
	c0,2.04-3.012,4.275-3.012,4.275s3.012,1.943,3.012,4.003c0,1.072-0.415,1.796-0.899,2.221c-0.696,0.247-1.538,0.04-2.277-0.387
	c-1.784-1.03-1.961-4.61-1.961-4.61s-3.441,1.491-5.208,0.471c-0.813-0.469-3.454-1.92-3.753-3.035
	c-0.689-2.573,0.646-3.749,0.328-8.271c-0.21-2.988-2.142-5.684-4.447-8.642c-0.518,3.715-1.207,6.788-0.773,8.665
	c0.765,3.306,2.067,4.122,2.918,6.783c0.381,1.192,0.069,1.884-0.595,1.5c-3.783-2.184-3.697-5.714-7.602-7.968
	c-4.511-2.604-11.852-2.768-17.223-5.679c5.207,3.196,9.019,9.472,13.53,12.076c3.904,2.254,6.919,0.415,10.702,2.599
	c0.664,0.384,0.221,0.999-1.002,1.266c-2.729,0.594-4.087-0.126-7.333,0.865c-1.844,0.563-4.16,2.696-7.118,5.002
	c3.715,0.518,7.015,0.843,9.708-0.469c4.075-1.986,4.426-3.73,6.999-4.42c1.147-0.307,3.692,1.264,4.505,1.733
	c1.767,1.02,2.196,4.746,2.196,4.746s3.189-1.637,4.973-0.607c0.928,0.536,1.348,1.257,1.473,1.889
	c-0.134,0.726-0.735,1.352-1.473,1.779c-1.784,1.03-4.973-0.607-4.973-0.607s-0.429,3.726-2.196,4.746
	c-0.813,0.469-3.39,2.032-4.505,1.733c-2.573-0.689-2.924-2.434-6.999-4.42c-2.693-1.312-5.993-0.987-9.708-0.469
	c2.958,2.306,5.275,4.439,7.118,5.002c3.246,0.991,4.604,0.271,7.333,0.865c1.223,0.266,1.666,0.882,1.002,1.266
	c-3.783,2.184-6.797,0.345-10.702,2.599c-4.511,2.604-8.323,8.88-13.53,12.076c5.371-2.911,12.712-3.075,17.223-5.679
	c3.904-2.254,3.819-5.784,7.602-7.968c0.664-0.384,0.976,0.308,0.595,1.5c-0.85,2.66-2.153,3.476-2.918,6.783
	c-0.434,1.878,0.255,4.951,0.773,8.665c2.305-2.958,4.237-5.654,4.447-8.642c0.318-4.522-1.017-5.699-0.328-8.271
	c0.307-1.147,2.941-2.566,3.753-3.035c1.767-1.02,5.208,0.471,5.208,0.471s0.177-3.58,1.961-4.61
	c0.928-0.536,1.763-0.539,2.373-0.331c0.562,0.479,0.804,1.312,0.804,2.165c0,2.06-3.012,4.003-3.012,4.003s3.012,2.235,3.012,4.275
	c0,0.938,0.065,3.951-0.751,4.768c-1.883,1.883-3.57,1.315-7.327,3.851c-2.483,1.676-3.851,4.697-5.261,8.173
	c3.476-1.409,6.482-2.348,7.891-3.664c2.481-2.315,2.536-3.851,4.415-5.918c0.842-0.926,1.597-1.002,1.597-0.235
	c0,4.368-3.1,6.059-3.1,10.567c0,5.208,3.529,11.648,3.693,17.755c0.164-6.107,3.693-12.547,3.693-17.755
	c0-4.508-3.1-6.199-3.1-10.567c0-0.767,0.755-0.691,1.597,0.235c1.879,2.067,1.934,3.603,4.415,5.918
	c1.409,1.315,4.415,2.255,7.891,3.664c-1.409-3.476-2.778-6.497-5.261-8.173c-3.758-2.536-5.444-1.968-7.327-3.851
	c-0.84-0.84-0.752-3.829-0.752-4.768c0-2.04,3.012-4.275,3.012-4.275s-3.012-1.943-3.012-4.003c0-1.072,0.415-1.796,0.899-2.221
	c0.696-0.247,1.538-0.04,2.277,0.387c1.784,1.03,1.961,4.61,1.961,4.61s3.441-1.491,5.208-0.471c0.813,0.469,3.454,1.92,3.753,3.035
	c0.689,2.573-0.646,3.749-0.328,8.271c0.21,2.988,2.142,5.684,4.447,8.642c0.518-3.715,1.207-6.788,0.773-8.665
	c-0.765-3.306-2.067-4.122-2.918-6.783c-0.381-1.192-0.069-1.884,0.595-1.5c3.783,2.184,3.697,5.714,7.602,7.968
	c4.511,2.604,11.852,2.768,17.223,5.679C87.443,71.391,83.63,65.115,79.12,62.511z M52.001,51.118L50,52.274l-2.001-1.155v-2.311
	L50,47.652l2.001,1.155V51.118z"/>
</svg>
