<?xml version="1.0" encoding="utf-8"?>
<!-- Generator: Adobe Illustrator 17.0.0, SVG Export Plug-In . SVG Version: 6.00 Build 0)  -->
<!DOCTYPE svg PUBLIC "-//W3C//DTD SVG 1.1//EN" "http://www.w3.org/Graphics/SVG/1.1/DTD/svg11.dtd">
<svg version="1.1" id="Layer_1" xmlns="http://www.w3.org/2000/svg" xmlns:xlink="http://www.w3.org/1999/xlink" x="0px" y="0px"
	 width="100px" height="100px" viewBox="0 0 100 100" enable-background="new 0 0 100 100" xml:space="preserve">
<g>
	<path fill="#6CA9E0" d="M15.996,66.107c-4.206,5.19-8.743,8.632-8.743,8.632s5.166-2.352,11.764-3.4l5.129-6.578L15.996,66.107z"/>
	<path fill="#6CA9E0" d="M15.996,33.819l8.261,1.153l-5.24-6.385C12.419,27.539,7.17,25.331,7.17,25.331S11.79,28.629,15.996,33.819
		z"/>
	<path fill="#6CA9E0" d="M53.021,12.443c-2.391-6.237-3.104-11.888-3.104-11.888s-0.546,5.65-2.938,11.888l3.132,7.731
		L53.021,12.443z"/>
	<path fill="#6CA9E0" d="M84.004,33.819c4.206-5.19,8.743-8.632,8.743-8.632s-5.166,2.352-11.764,3.4l-5.129,6.578L84.004,33.819z"
		/>
	<path fill="#6CA9E0" d="M91.032,60.731c0.115-0.047,0.2-0.13,0.259-0.232c0.248-0.429,0.022-1.193-0.494-1.028
		c-6.408,2.039-16.651,2.746-20.52,1.112c-1.129-0.477-1.051-0.607-1.051-0.607c-1.725-2.496-2.091-5.539-2.061-6.341
		c0.014-0.384-0.252-0.508-0.586-0.338c-3.218,1.641-6.723,1.27-6.723,1.27l-3.465-2.001L54.9,49.972l0.005-0.009l-0.008,0.003
		l-0.034-0.059l1.496-2.602l3.465-2.001c0,0,3.505-0.371,6.723,1.27c0.333,0.17,0.6,0.045,0.586-0.338
		c-0.03-0.802,0.336-3.845,2.061-6.341c-0.001-0.001-0.073-0.132,1.051-0.607c3.87-1.634,14.145-0.871,20.553,1.168
		c0.516,0.164,0.742-0.599,0.494-1.029c-0.059-0.102-0.144-0.185-0.259-0.232c-3.83-1.577-12.89-3.792-16.381-3.502
		c1.996-2.878,4.641-11.775,5.19-15.881c0.017-0.123-0.013-0.239-0.072-0.341c-0.248-0.429-1.022-0.616-1.138-0.086
		c-1.438,6.569-5.947,15.793-9.297,18.327c-0.977,0.739-1.051,0.607-1.051,0.607c-3.024,0.246-5.843-0.959-6.522-1.386
		c-0.325-0.204-0.566-0.036-0.586,0.338c-0.188,3.608-2.262,6.457-2.262,6.457l-3.466,2.001l-2.992-0.005l-0.005-0.009l-0.002,0.009
		l-0.068,0l-1.505-2.597v-4.002c0,0,1.431-3.221,4.461-5.187c0.314-0.204,0.339-0.497,0-0.676c-0.709-0.375-3.162-2.214-4.461-4.956
		c-0.001,0-0.151-0.002,0-1.213c0.52-4.168,6.318-12.686,11.288-17.215c0.401-0.365-0.148-0.942-0.644-0.942
		c-0.118,0-0.232,0.033-0.331,0.108c-3.281,2.529-9.729,9.267-11.223,12.435c-1.494-3.168-7.877-9.907-11.158-12.435
		c-0.098-0.076-0.213-0.108-0.331-0.108c-0.496,0-1.044,0.577-0.644,0.942c4.97,4.53,10.704,13.047,11.223,17.215
		c0.152,1.216,0,1.213,0,1.213c-1.299,2.742-3.752,4.58-4.461,4.956c-0.339,0.18-0.314,0.472,0,0.676
		c3.03,1.967,4.461,5.187,4.461,5.187v4.002l-1.5,2.588h-0.01l0.007,0.006L47.52,45.78l-3.002,0.005l-3.465-2.001
		c0,0-2.074-2.849-2.262-6.457c-0.019-0.374-0.26-0.542-0.586-0.338c-0.679,0.427-3.498,1.631-6.522,1.386
		c-0.001,0.001-0.077,0.13-1.051-0.607c-3.35-2.534-7.827-11.814-9.265-18.383c-0.116-0.529-0.89-0.343-1.138,0.086
		c-0.059,0.102-0.088,0.218-0.072,0.341c0.549,4.106,3.161,13.059,5.158,15.937c-3.491-0.29-12.518,1.869-16.349,3.446
		c-0.115,0.047-0.2,0.13-0.259,0.232c-0.248,0.429-0.022,1.193,0.494,1.029c6.408-2.039,16.651-2.746,20.52-1.112
		c1.129,0.477,1.051,0.607,1.051,0.607c1.725,2.496,2.091,5.539,2.061,6.341c-0.014,0.384,0.252,0.508,0.586,0.338
		c3.218-1.641,6.723-1.27,6.723-1.27l3.465,2.001l1.491,2.593l-0.005,0.009l0.008-0.003l0.034,0.059l-1.496,2.602l-3.465,2.001
		c0,0-3.505,0.371-6.723-1.27c-0.333-0.17-0.6-0.045-0.586,0.338c0.03,0.802-0.336,3.845-2.061,6.341
		c0.001,0.001,0.074,0.132-1.051,0.607c-3.87,1.634-14.145,0.871-20.553-1.168c-0.516-0.164-0.742,0.599-0.494,1.029
		c0.059,0.102,0.144,0.185,0.259,0.232c3.83,1.577,12.89,3.792,16.381,3.502c-1.996,2.878-4.641,11.775-5.19,15.881
		c-0.016,0.123,0.013,0.239,0.072,0.341c0.248,0.429,1.022,0.616,1.138,0.086c1.438-6.569,5.947-15.793,9.297-18.327
		c0.977-0.739,1.051-0.607,1.051-0.607c3.024-0.246,5.843,0.959,6.522,1.386c0.325,0.204,0.566,0.036,0.586-0.338
		c0.188-3.608,2.262-6.457,2.262-6.457l3.465-2.001l2.992,0.005l0.005,0.009l0.002-0.009l0.069,0l1.505,2.597v4.002
		c0,0-1.431,3.221-4.461,5.187c-0.314,0.204-0.339,0.497,0,0.676c0.709,0.375,3.162,2.214,4.461,4.956c0.001,0,0.151,0.002,0,1.213
		c-0.52,4.168-6.318,12.686-11.288,17.215c-0.401,0.365,0.148,0.942,0.644,0.942c0.118,0,0.233-0.033,0.331-0.108
		c3.281-2.529,9.729-9.267,11.223-12.435c1.494,3.168,7.877,9.907,11.158,12.435c0.098,0.076,0.213,0.108,0.331,0.108
		c0.495,0,1.044-0.577,0.644-0.942c-4.97-4.53-10.704-13.047-11.223-17.215c-0.152-1.216,0-1.213,0-1.213
		c1.299-2.742,3.752-4.58,4.461-4.956c0.339-0.179,0.314-0.472,0-0.676c-3.03-1.967-4.461-5.187-4.461-5.187v-4.002l1.5-2.588h0.01
		l-0.007-0.006l0.034-0.059l3.002-0.005l3.465,2.001c0,0,2.074,2.849,2.262,6.457c0.019,0.374,0.26,0.542,0.586,0.338
		c0.679-0.427,3.498-1.631,6.522-1.386c0.001-0.001,0.077-0.13,1.051,0.607c3.35,2.534,7.827,11.815,9.265,18.383
		c0.116,0.529,0.89,0.343,1.138-0.086c0.059-0.102,0.088-0.218,0.072-0.341c-0.549-4.106-3.161-13.059-5.158-15.937
		C78.174,64.466,87.202,62.308,91.032,60.731z M63.153,40.091c0.835,0.253,1.809,0.475,2.865,0.587
		c-0.431,0.97-0.726,1.924-0.924,2.775c-1.08-0.299-2.105-0.452-2.972-0.525C62.492,42.14,62.872,41.176,63.153,40.091z
		 M34.874,43.508c-0.198-0.85-0.494-1.804-0.924-2.774c1.055-0.112,2.03-0.333,2.865-0.587c0.281,1.085,0.661,2.048,1.031,2.836
		C36.979,43.057,35.954,43.21,34.874,43.508z M36.847,59.835c-0.835-0.253-1.809-0.475-2.865-0.587
		c0.431-0.97,0.726-1.925,0.924-2.775c1.08,0.299,2.105,0.452,2.972,0.525C37.508,57.786,37.128,58.75,36.847,59.835z
		 M48.027,33.636c0.637-0.597,1.316-1.33,1.941-2.188c0.625,0.858,1.304,1.591,1.941,2.188c-0.799,0.786-1.443,1.597-1.941,2.311
		C49.471,35.233,48.826,34.422,48.027,33.636z M51.973,66.29c-0.637,0.597-1.316,1.33-1.941,2.188
		c-0.625-0.858-1.304-1.591-1.941-2.188c0.799-0.786,1.443-1.597,1.941-2.311C50.529,64.693,51.174,65.504,51.973,66.29z
		 M51.589,50.768L50.7,51.518l-0.603,0.223l-1.094-0.394l-0.495-0.411l-0.206-1.145l0.108-0.633l0.889-0.751l0.603-0.223
		l1.094,0.394l0.495,0.411l0.206,1.145L51.589,50.768z M63.185,59.779c-0.281-1.085-0.661-2.048-1.031-2.836
		c0.867-0.073,1.892-0.226,2.972-0.525c0.198,0.85,0.494,1.804,0.924,2.774C64.995,59.304,64.02,59.525,63.185,59.779z"/>
	<path fill="#6CA9E0" d="M84.004,66.107l-8.261-1.153l5.24,6.385c6.596,1.047,11.845,3.255,11.847,3.256
		C92.828,74.593,88.209,71.296,84.004,66.107z"/>
	<polygon fill="#6CA9E0" points="92.83,74.595 92.83,74.595 92.83,74.595 	"/>
	<path fill="#6CA9E0" d="M46.979,87.483c2.391,6.237,3.104,11.888,3.104,11.888s0.546-5.65,2.938-11.888l-3.132-7.731L46.979,87.483
		z"/>
</g>
</svg>
