<?xml version="1.0" encoding="utf-8"?>
<!-- Generator: Adobe Illustrator 17.0.0, SVG Export Plug-In . SVG Version: 6.00 Build 0)  -->
<!DOCTYPE svg PUBLIC "-//W3C//DTD SVG 1.1//EN" "http://www.w3.org/Graphics/SVG/1.1/DTD/svg11.dtd">
<svg version="1.1" id="Layer_1" xmlns="http://www.w3.org/2000/svg" xmlns:xlink="http://www.w3.org/1999/xlink" x="0px" y="0px"
	 width="100px" height="100px" viewBox="0 0 100 100" enable-background="new 0 0 100 100" xml:space="preserve">
<g>
	<g>
		<path fill="#6CA9E0" d="M73.438,55.462c-1.45,2.51-5.155,3.449-6.934,2.419c-3.363-1.944-4.119-4.752-2.291-7.921
			c-1.828-3.162-1.072-5.971,2.291-7.915c1.779-1.03,5.484-0.091,6.934,2.413c0,0,5.758-8.656,19.624-18.695
			c0.565-0.409,0.06-1.283-0.577-0.999c-15.629,6.99-26.006,7.648-26.006,7.648c1.45,2.504,0.408,6.184-1.371,7.214
			c-3.369,1.944-6.178,1.188-8.006-1.974c-3.656,0-5.709-2.059-5.709-5.941c0-2.059,2.663-4.801,5.557-4.801
			c0,0-4.618-9.313-6.377-26.341c-0.072-0.694-1.081-0.694-1.153,0c-1.763,17.028-6.38,26.341-6.38,26.341
			c2.894,0,5.563,2.742,5.563,4.801c0,3.881-2.059,5.941-5.715,5.941c-1.828,3.162-4.637,3.918-8,1.974
			c-1.779-1.03-2.821-4.71-1.377-7.214c0,0-10.374-0.658-25.997-7.646c-0.636-0.285-1.141,0.59-0.577,0.999
			C20.8,35.803,26.553,44.458,26.553,44.458c1.45-2.504,5.155-3.442,6.94-2.413c3.363,1.944,4.113,4.752,2.285,7.915
			c1.828,3.168,1.078,5.977-2.285,7.921c-1.785,1.03-5.49,0.091-6.94-2.419c0,0-5.755,8.658-19.623,18.702
			c-0.565,0.409-0.06,1.283,0.577,0.999c15.627-6.991,26.005-7.649,26.005-7.649c-1.444-2.51-0.402-6.19,1.377-7.214
			c3.363-1.944,6.172-1.194,8,1.974c3.656,0,5.709,2.059,5.709,5.941c0,2.059-2.663,4.801-5.557,4.801c0,0,4.618,9.313,6.38,26.341
			c0.072,0.694,1.081,0.693,1.153,0c1.759-17.028,6.377-26.341,6.377-26.341c-2.894,0-5.557-2.742-5.557-4.801
			c0-3.881,2.053-5.941,5.709-5.941c1.828-3.168,4.637-3.918,8.006-1.974c1.779,1.024,2.821,4.704,1.371,7.214
			c0,0,10.38,0.658,26.013,7.647c0.636,0.285,1.141-0.59,0.576-0.999C79.198,64.121,73.438,55.462,73.438,55.462z M70.203,35.002
			c2.26-0.378,5.544-1.06,9.645-2.273c-3.101,2.943-5.331,5.441-6.794,7.214c-1.085-0.646-2.297-1.085-3.516-1.267
			C69.989,37.537,70.221,36.263,70.203,35.002z M26.937,39.943c-1.456-1.773-3.686-4.271-6.788-7.214
			c4.094,1.212,7.379,1.895,9.645,2.273c-0.018,1.261,0.207,2.535,0.658,3.674C29.24,38.859,28.022,39.297,26.937,39.943z
			 M29.795,64.924c-2.267,0.378-5.551,1.054-9.645,2.273c3.101-2.943,5.331-5.447,6.788-7.22c1.084,0.652,2.303,1.085,3.516,1.267
			C30.002,62.389,29.776,63.657,29.795,64.924z M47.141,24.985c0.804-2.151,1.858-5.331,2.858-9.487
			c0.993,4.155,2.047,7.336,2.852,9.487c-1.103,0.615-2.09,1.45-2.852,2.407C49.231,26.435,48.244,25.601,47.141,24.985z
			 M52.85,74.941c-0.804,2.151-1.858,5.331-2.852,9.487c-0.999-4.155-2.053-7.336-2.858-9.487c1.103-0.615,2.09-1.45,2.858-2.413
			C50.76,73.491,51.747,74.325,52.85,74.941z M59.759,48.821c0,0-2.973-1.529-4.643-0.567c-0.682,0.396-1.243,0.969-1.371,1.645
			c0,0.006,0,0.012,0,0.012c0.116,0.591,0.512,1.261,1.371,1.761c1.669,0.963,4.643-0.567,4.643-0.567
			c-0.049,1.456,1.042,4.521,1.505,5.362c-1.06,0.03-3.899,0.317-5.398,1.377c0,0-0.165-3.339-1.828-4.302
			c-0.689-0.396-1.481-0.591-2.126-0.353c-0.451,0.39-0.835,1.066-0.835,2.066c0,1.919,2.809,3.729,2.809,3.729
			c-1.28,0.688-3.394,3.162-3.887,3.991c-0.561-0.908-2.224-3.223-3.887-3.991c0,0,2.809-1.81,2.809-3.729
			c0-0.792-0.219-1.566-0.737-2.017h-0.006c-0.567-0.195-1.346-0.195-2.218,0.305c-1.663,0.963-1.828,4.302-1.828,4.302
			c-1.237-0.768-4.436-1.359-5.398-1.377c0.506-0.938,1.676-3.534,1.505-5.362c0,0,2.979,1.529,4.643,0.567
			c0.682-0.396,1.243-0.969,1.371-1.645c0-0.006,0-0.012,0-0.012c-0.116-0.591-0.512-1.261-1.371-1.761
			c-1.663-0.963-4.643,0.567-4.643,0.567c0.049-1.456-1.042-4.521-1.505-5.362c1.06-0.03,3.9-0.317,5.398-1.377
			c0,0,0.165,3.339,1.828,4.302c0.688,0.396,1.481,0.591,2.126,0.353c0.451-0.39,0.835-1.066,0.835-2.065
			c0-1.919-2.809-3.729-2.809-3.729c1.28-0.689,3.394-3.162,3.887-3.991c0.561,0.908,2.224,3.223,3.887,3.991
			c0,0-2.809,1.81-2.809,3.729c0,0.786,0.219,1.56,0.731,2.011c0,0,0,0.006,0.006,0.006c0.567,0.195,1.353,0.195,2.224-0.305
			c1.663-0.963,1.828-4.302,1.828-4.302c1.237,0.768,4.436,1.359,5.398,1.377C60.759,44.397,59.589,46.993,59.759,48.821z
			 M70.203,64.924c0.018-1.267-0.213-2.535-0.664-3.68c1.219-0.183,2.431-0.615,3.516-1.267c1.462,1.773,3.692,4.277,6.794,7.22
			C75.747,65.978,72.463,65.302,70.203,64.924z"/>
	</g>
	<g>
		<path fill="#6CA9E0" d="M52.064,48.577c-0.414-0.609-1.097-1.03-1.877-1.091c-0.061-0.006-0.128-0.006-0.189-0.006
			c-0.055,0-0.11,0-0.164,0.006c-0.786,0.049-1.474,0.469-1.889,1.078c-0.067,0.098-0.128,0.201-0.177,0.311
			c-0.165,0.329-0.256,0.695-0.256,1.085c0,0.39,0.091,0.756,0.25,1.078c0.049,0.11,0.11,0.213,0.171,0.311
			c0.414,0.609,1.097,1.03,1.877,1.091c0.061,0.006,0.128,0.006,0.189,0.006c0.055,0,0.11,0,0.165-0.006
			c0.786-0.049,1.475-0.469,1.889-1.078c0.067-0.098,0.128-0.201,0.171-0.305c0.171-0.329,0.262-0.701,0.262-1.097
			c0-0.384-0.085-0.749-0.25-1.072C52.186,48.778,52.131,48.674,52.064,48.577z"/>
	</g>
</g>
</svg>
