<?xml version="1.0" encoding="utf-8"?>
<!-- Generator: Adobe Illustrator 17.0.0, SVG Export Plug-In . SVG Version: 6.00 Build 0)  -->
<!DOCTYPE svg PUBLIC "-//W3C//DTD SVG 1.1//EN" "http://www.w3.org/Graphics/SVG/1.1/DTD/svg11.dtd">
<svg version="1.1" id="Layer_1" xmlns="http://www.w3.org/2000/svg" xmlns:xlink="http://www.w3.org/1999/xlink" x="0px" y="0px"
	 width="100px" height="100px" viewBox="0 0 100 100" enable-background="new 0 0 100 100" xml:space="preserve">
<path fill="#6CA9E0" d="M98.665,49.471c-12.541,0-23.585-5.385-24.908-6.075c-1.438,0.748-10.182,5.465-10.929,5.465
	c-0.748,0-2.473-1.496-2.473-1.496s-1.898,1.496-2.876,1.496c-0.496,0-2.409-0.115-4.177-0.228c1.17-1.33,2.442-2.764,2.792-3.115
	c0.691-0.691,3.091-0.976,3.091-0.976s0.163-2.278,0.691-2.807c0.529-0.529,10.047-3.376,11.592-3.864
	c0.447-1.424,4.449-13.04,13.316-21.908c0.224-0.224,0.164-0.538-0.023-0.725c-0.187-0.187-0.501-0.247-0.725-0.023
	c-8.868,8.868-20.485,12.869-21.908,13.317c-0.488,1.546-3.335,11.064-3.864,11.592c-0.529,0.529-2.807,0.692-2.807,0.692
	s-0.285,2.4-0.976,3.091c-0.35,0.35-1.785,1.622-3.115,2.792c-0.113-1.767-0.228-3.681-0.228-4.177c0-0.978,1.496-2.876,1.496-2.876
	s-1.496-1.726-1.496-2.474c0-0.748,4.717-9.491,5.465-10.929c-0.69-1.323-6.075-12.367-6.075-24.908
	c0-0.317-0.264-0.496-0.529-0.496c-0.264,0-0.529,0.179-0.529,0.496c0,12.541-5.385,23.585-6.075,24.908
	c0.748,1.438,5.465,10.182,5.465,10.929c0,0.748-1.496,2.474-1.496,2.474s1.496,1.898,1.496,2.876c0,0.496-0.115,2.409-0.228,4.177
	c-1.33-1.17-2.764-2.442-3.115-2.792c-0.691-0.691-0.976-3.091-0.976-3.091s-2.278-0.163-2.807-0.692
	c-0.529-0.529-3.376-10.047-3.864-11.592c-1.424-0.447-13.04-4.449-21.908-13.317c-0.224-0.224-0.538-0.164-0.725,0.023
	c-0.187,0.187-0.247,0.501-0.023,0.725c8.868,8.868,12.869,20.485,13.316,21.908c1.546,0.488,11.064,3.335,11.592,3.864
	c0.529,0.529,0.691,2.807,0.691,2.807s2.4,0.285,3.091,0.976c0.35,0.35,1.622,1.785,2.792,3.115
	c-1.767,0.113-3.681,0.228-4.177,0.228c-0.978,0-2.876-1.496-2.876-1.496s-1.726,1.496-2.474,1.496
	c-0.748,0-9.491-4.717-10.929-5.465c-1.323,0.69-12.367,6.075-24.908,6.075c-0.317,0-0.496,0.264-0.496,0.529
	c0,0.264,0.179,0.529,0.496,0.529c12.541,0,23.585,5.385,24.908,6.075c1.438-0.748,10.182-5.465,10.929-5.465
	c0.748,0,2.474,1.496,2.474,1.496s1.898-1.496,2.876-1.496c0.496,0,2.409,0.115,4.177,0.228c-1.17,1.33-2.442,2.764-2.792,3.115
	c-0.691,0.691-3.091,0.976-3.091,0.976s-0.163,2.278-0.691,2.807c-0.529,0.529-10.047,3.376-11.592,3.864
	c-0.447,1.424-4.449,13.04-13.316,21.908c-0.224,0.224-0.164,0.538,0.023,0.725c0.187,0.187,0.501,0.247,0.725,0.023
	c8.868-8.868,20.485-12.869,21.908-13.317c0.488-1.546,3.335-11.064,3.864-11.592c0.529-0.529,2.807-0.691,2.807-0.691
	s0.285-2.4,0.976-3.091c0.35-0.35,1.785-1.622,3.115-2.792c0.113,1.767,0.228,3.681,0.228,4.177c0,0.978-1.496,2.876-1.496,2.876
	s1.496,1.726,1.496,2.474c0,0.748-4.717,9.491-5.465,10.929c0.69,1.323,6.075,12.367,6.075,24.908c0,0.317,0.264,0.496,0.529,0.496
	c0.264,0,0.529-0.179,0.529-0.496c0-12.541,5.385-23.585,6.075-24.908c-0.748-1.438-5.465-10.182-5.465-10.929
	c0-0.748,1.496-2.474,1.496-2.474s-1.496-1.898-1.496-2.876c0-0.496,0.115-2.409,0.228-4.177c1.33,1.17,2.764,2.441,3.115,2.792
	c0.692,0.691,0.976,3.091,0.976,3.091s2.278,0.163,2.807,0.691c0.529,0.529,3.376,10.047,3.864,11.592
	c1.424,0.447,13.04,4.449,21.908,13.317c0.224,0.224,0.538,0.164,0.725-0.023c0.187-0.187,0.247-0.501,0.023-0.725
	c-8.868-8.868-12.869-20.485-13.316-21.908c-1.546-0.488-11.064-3.335-11.592-3.864s-0.691-2.807-0.691-2.807
	s-2.4-0.285-3.091-0.976c-0.35-0.35-1.622-1.785-2.792-3.115c1.767-0.113,3.681-0.228,4.177-0.228c0.978,0,2.876,1.496,2.876,1.496
	s1.726-1.496,2.473-1.496c0.748,0,9.491,4.717,10.929,5.465c1.323-0.69,12.367-6.075,24.908-6.075c0.317,0,0.496-0.264,0.496-0.529
	C99.161,49.735,98.982,49.471,98.665,49.471z M64.729,31.032c1.672-0.625,4.474-1.772,7.755-3.516
	c-1.744,3.282-2.891,6.083-3.516,7.755c-2.666,0.818-4.666,1.446-6.178,1.939C63.283,35.697,63.911,33.697,64.729,31.032z
	 M31.031,35.271c-0.625-1.672-1.772-4.474-3.516-7.755c3.282,1.744,6.083,2.891,7.755,3.516c0.818,2.666,1.446,4.666,1.939,6.178
	C35.697,36.717,33.697,36.089,31.031,35.271z M26.172,52.998c-1.624-0.74-4.416-1.91-7.97-2.998c3.554-1.087,6.346-2.257,7.97-2.998
	c2.464,1.306,4.321,2.277,5.739,2.998C30.493,50.721,28.636,51.691,26.172,52.998z M35.271,68.968
	c-1.672,0.625-4.474,1.772-7.755,3.516c1.744-3.282,2.891-6.083,3.516-7.755c2.666-0.818,4.666-1.446,6.178-1.939
	C36.716,64.303,36.089,66.303,35.271,68.968z M68.968,64.729c0.625,1.672,1.772,4.474,3.516,7.755
	c-3.282-1.744-6.083-2.891-7.755-3.516c-0.818-2.666-1.446-4.666-1.939-6.178C64.303,63.283,66.303,63.911,68.968,64.729z
	 M47.002,26.172c0.74-1.624,1.91-4.416,2.998-7.97c1.087,3.554,2.257,6.346,2.998,7.97c-1.306,2.464-2.277,4.321-2.998,5.739
	C49.279,30.494,48.309,28.636,47.002,26.172z M52.998,73.828c-0.74,1.624-1.91,4.416-2.998,7.97
	c-1.087-3.554-2.257-6.346-2.998-7.97c1.306-2.464,2.277-4.321,2.998-5.739C50.721,69.506,51.691,71.364,52.998,73.828z M50,51.75
	c-0.967,0-1.75-0.784-1.75-1.75c0-0.967,0.784-1.75,1.75-1.75c0.967,0,1.75,0.784,1.75,1.75C51.75,50.967,50.967,51.75,50,51.75z
	 M73.828,52.998c-2.464-1.306-4.321-2.277-5.739-2.998c1.418-0.721,3.275-1.691,5.739-2.998c1.624,0.74,4.416,1.91,7.97,2.998
	C78.244,51.087,75.452,52.257,73.828,52.998z"/>
</svg>
