<?xml version="1.0" encoding="utf-8"?>
<!-- Generator: Adobe Illustrator 17.0.0, SVG Export Plug-In . SVG Version: 6.00 Build 0)  -->
<!DOCTYPE svg PUBLIC "-//W3C//DTD SVG 1.1//EN" "http://www.w3.org/Graphics/SVG/1.1/DTD/svg11.dtd">
<svg version="1.1" id="Layer_1" xmlns="http://www.w3.org/2000/svg" xmlns:xlink="http://www.w3.org/1999/xlink" x="0px" y="0px"
	 width="100px" height="100px" viewBox="0 0 100 100" enable-background="new 0 0 100 100" xml:space="preserve">
<path fill="#6CA9E0" d="M55.187,50.798v-1.595l15.576-2.395L92.938,25.21l-29.792,8.405l-9.862,12.292l-1.381-0.798l5.714-14.686
	L50,0.419l-7.617,30.003l5.714,14.686l-1.381,0.798l-9.862-12.292L7.062,25.21l22.175,21.598l15.576,2.395v1.595l-15.576,2.395
	L7.062,74.79l29.792-8.405l9.862-12.292l1.381,0.797l-5.714,14.686L50,99.581l7.617-30.004l-5.714-14.686l1.381-0.797l9.862,12.292
	l29.792,8.405L70.763,53.192L55.187,50.798z M65.254,36.799l14.886-4.2l-11.08,10.792l-10.374,1.595L65.254,36.799z M30.941,43.391
	L19.86,32.599l14.886,4.2l6.569,8.187L30.941,43.391z M34.746,63.201l-14.886,4.2l11.08-10.792l10.374-1.595L34.746,63.201z
	 M46.194,30.189L50,15.198l3.806,14.992L50,39.971L46.194,30.189z M53.806,69.811L50,84.802l-3.806-14.992L50,60.029L53.806,69.811z
	 M52.122,51.225L50,52.451l-2.122-1.225v-2.451L50,47.549l2.122,1.225V51.225z M65.254,63.201l-6.569-8.187l10.374,1.595
	l11.08,10.792L65.254,63.201z"/>
</svg>
