<svg xmlns="http://www.w3.org/2000/svg" width="100" height="100"><path fill="#6CA9E0" d="M81.88 53.22c-.04-.32-.46-.52-.72-.35-3.13 2.16-12.08 6.22-17.94 2.84-3.46-2-4.24-3.86-4.37-5.19h.01c-.01-.16-.03-.33-.03-.52s.02-.37.03-.52h-.01c.13-1.33.91-3.19 4.37-5.19 5.86-3.39 14.81.68 17.94 2.84.25.18.68-.03.72-.35.56-4.44.97-11.45 9.39-20.16.16-.17.18-.37.1-.51-.08-.14-.26-.22-.49-.17-11.76 2.94-18.03-.21-22.15-1.94-.3-.12-.69.14-.66.45.3 3.79-.65 13.57-6.51 16.95-3.46 2-5.46 1.74-6.67 1.19v-.01c-.14-.07-.3-.14-.47-.24-.16-.1-.31-.2-.44-.29v.01c-1.09-.77-2.31-2.38-2.31-6.38 0-6.77 7.99-12.48 11.43-14.12.28-.13.31-.6.06-.8-3.56-2.71-9.43-6.56-12.77-18.22-.07-.2-.23-.32-.39-.32s-.32.11-.39.34c-3.34 11.66-9.2 15.51-12.77 18.22-.26.19-.22.66.06.8 3.44 1.63 11.43 7.35 11.43 14.12 0 3.99-1.22 5.6-2.31 6.38v-.01c-.13.09-.27.19-.44.29-.17.09-.32.17-.47.24v.01c-1.21.55-3.22.81-6.67-1.19-5.86-3.39-6.82-13.16-6.51-16.95.02-.31-.37-.57-.66-.45-4.13 1.73-10.4 4.89-22.16 1.95-.23-.06-.41.03-.49.17-.08.14-.06.34.1.51 8.43 8.72 8.83 15.72 9.39 20.16.04.32.46.52.72.35 3.13-2.16 12.08-6.22 17.94-2.84 3.46 2 4.24 3.86 4.37 5.19h-.01c.01.16.03.33.03.52s-.02.37-.03.52h.01c-.13 1.33-.91 3.19-4.37 5.19-5.86 3.39-14.81-.68-17.94-2.84-.25-.18-.68.03-.72.35-.56 4.44-.97 11.45-9.39 20.16-.16.17-.18.37-.1.51.08.14.26.22.49.17 11.76-2.94 18.03.21 22.16 1.95.3.12.69-.14.66-.45-.3-3.79.65-13.57 6.51-16.95 3.46-2 5.46-1.74 6.67-1.19v.01c.14.07.3.14.47.24.16.1.31.2.44.29v-.01c1.09.77 2.31 2.38 2.31 6.38 0 6.77-7.99 12.48-11.43 14.12-.28.13-.31.6-.06.8 3.56 2.71 9.43 6.56 12.77 18.22.06.23.23.34.39.34s.32-.11.39-.34c3.34-11.66 9.2-15.51 12.77-18.22.26-.19.22-.66-.06-.8-3.44-1.63-11.43-7.35-11.43-14.12 0-3.99 1.22-5.6 2.31-6.38v.01c.13-.09.28-.19.44-.29.17-.09.32-.17.47-.24v-.01c1.21-.55 3.22-.81 6.67 1.19 5.86 3.39 6.82 13.16 6.51 16.95-.02.31.37.57.66.45 4.13-1.73 10.4-4.89 22.16-1.95.23.06.41-.03.49-.17.08-.14.06-.34-.1-.51-8.43-8.75-8.84-15.75-9.4-20.19zm-9.19-22.38c2.28.67 5 1.21 8.26 1.29-1.56 2.87-2.46 5.49-3.01 7.8-2.2-.85-4.73-1.55-7.35-1.81 1.08-2.4 1.73-4.95 2.1-7.28zm-50.63 9.09c-.56-2.31-1.45-4.93-3.01-7.8 3.26-.08 5.98-.62 8.26-1.29.37 2.33 1.02 4.88 2.11 7.27-2.62.26-5.15.97-7.36 1.82zm5.25 29.23c-2.28-.67-5-1.21-8.26-1.29 1.56-2.87 2.46-5.49 3.01-7.8 2.2.85 4.73 1.55 7.35 1.81-1.08 2.4-1.73 4.95-2.1 7.28zm17.45-48.39c1.72-1.63 3.54-3.72 5.24-6.51 1.7 2.78 3.52 4.87 5.24 6.51-1.83 1.48-3.71 3.32-5.24 5.46-1.53-2.14-3.41-3.98-5.24-5.46zm10.48 58.46A31.275 31.275 0 0 0 50 85.74c-1.7-2.78-3.52-4.87-5.24-6.51 1.83-1.48 3.71-3.32 5.24-5.46 1.53 2.14 3.41 3.98 5.24 5.46zM50 54.66c-2.57 0-4.66-2.09-4.66-4.66 0-2.57 2.09-4.66 4.66-4.66s4.66 2.09 4.66 4.66c0 2.57-2.09 4.66-4.66 4.66zm22.69 14.5c-.37-2.33-1.02-4.88-2.11-7.27 2.62-.26 5.15-.97 7.35-1.81.56 2.31 1.45 4.93 3.01 7.8-3.25.07-5.97.6-8.25 1.28z"/></svg>