<svg xmlns="http://www.w3.org/2000/svg" width="100" height="100" viewBox="0 0 100 100"><path fill="#6CA9E0" d="M7.115 25.792c18.258 11.837 21.453 21.81 23.328 24.071 4.14-.437 6.622-3.716 9.559-3.906l3.476 2.007a6.834 6.834 0 0 0-.026 4.012l-3.45 1.992c-2.937-.189-5.419-3.468-9.559-3.906-1.875 2.261-5.07 12.234-23.328 24.071-.285.185.207 1.038.51.883 19.38-9.893 29.615-7.674 32.51-8.168 1.691-3.804.093-7.593 1.397-10.231l3.433-1.982a6.826 6.826 0 0 0 3.504 2.039v3.949c-1.632 2.448-5.713 2.959-8.162 6.325 1.02 2.755 8.06 10.508 9.182 32.238.018.34 1.003.34 1.02 0 1.122-21.73 8.162-29.484 9.182-32.238-2.448-3.367-6.529-3.877-8.162-6.325v-3.949a6.826 6.826 0 0 0 3.504-2.039l3.433 1.982c1.304 2.638-.294 6.427 1.397 10.231 2.896.494 13.13-1.726 32.51 8.168.303.155.795-.698.51-.883-18.258-11.837-21.453-21.81-23.328-24.071-4.14.437-6.622 3.716-9.559 3.906l-3.45-1.992a6.835 6.835 0 0 0-.026-4.012l3.476-2.007c2.937.189 5.419 3.468 9.559 3.906 1.875-2.261 5.07-12.234 23.328-24.071.285-.185-.207-1.038-.51-.884-19.38 9.893-29.615 7.674-32.51 8.168-1.691 3.804-.093 7.593-1.397 10.231l-3.496 2.018a6.831 6.831 0 0 0-3.441-1.973v-4.051c1.632-2.448 5.713-2.959 8.162-6.325-1.02-2.755-8.06-10.508-9.182-32.238-.018-.34-1.003-.34-1.02 0-1.122 21.73-8.162 29.484-9.182 32.238 2.448 3.367 6.529 3.877 8.162 6.325v4.051a6.827 6.827 0 0 0-3.441 1.973l-3.496-2.018c-1.304-2.638.294-6.427-1.397-10.231-2.896-.494-13.13 1.726-32.51-8.168-.303-.154-.795.699-.51.884zm30.31 37.792c-2.481-.217-9.415.017-14.329 1.911 4.098-3.308 7.767-9.196 8.82-11.453 1.608.132 4.226 2.626 6.112 2.833-.764 1.737.087 5.251-.603 6.709zm30.659-9.542c1.053 2.257 4.722 8.145 8.82 11.453-4.914-1.895-11.847-2.128-14.329-1.911-.689-1.458.161-4.972-.603-6.709 1.886-.207 4.504-2.701 6.112-2.833zm-5.509-17.7c2.481.217 9.415-.017 14.329-1.911-4.098 3.308-7.767 9.196-8.82 11.453-1.608-.132-4.226-2.626-6.112-2.833.764-1.737-.087-5.251.603-6.709zm-7.066 31.322c-1.428 2.04-4.693 8.162-5.509 13.365-.816-5.203-4.081-11.324-5.509-13.365.918-1.326 4.387-2.346 5.509-3.877 1.122 1.53 4.591 2.55 5.509 3.877zM44.491 32.262c1.428-2.04 4.693-8.162 5.509-13.365.816 5.203 4.081 11.324 5.509 13.365-.918 1.326-4.387 2.346-5.509 3.877-1.122-1.53-4.591-2.55-5.509-3.877zM50 45.913a4.1 4.1 0 1 1 0 8.202 4.1 4.1 0 0 1 0-8.202zm-12.575-9.571c.689 1.458-.161 4.972.603 6.709-1.886.207-4.504 2.701-6.112 2.833-1.053-2.257-4.722-8.145-8.82-11.453 4.915 1.894 11.848 2.127 14.329 1.911z"/></svg>