<svg xmlns="http://www.w3.org/2000/svg" width="100" height="100"><path fill="#6CA9E0" d="M76.512 63.882c-1.477-.624-3.169-1.83-3.169-1.83-2.256-3.266-2.735-7.247-2.696-8.296.019-.502-.33-.665-.766-.442-4.21 2.147-8.795 1.661-8.795 1.661l-2.739-1.581-1.966-3.419.007-.011-.011.004-.014-.024 1.973-3.431 2.739-1.581s4.585-.486 8.795 1.661c.436.223.785.059.766-.442-.039-1.049.44-5.03 2.696-8.296 0 0 1.693-1.206 3.169-1.83l.012.02c1.75-.739 7.154 2.129 10.345 2.067.407-4.433 2.423-8.115 6.37-13.105-6.295.924-10.492.828-14.535-1.036-1.649 2.732-1.867 8.846-3.382 9.992-1.278.967-3.169 1.83-3.169 1.83-3.956.321-7.644-1.255-8.533-1.813-.425-.267-.741-.047-.766.442-.246 4.72-2.959 8.447-2.959 8.447l-2.739 1.581-3.945-.006-.007-.011-.002.011h-.028l-1.985-3.424v-3.163s1.872-4.213 5.836-6.786c.411-.267.444-.65 0-.885-.928-.491-4.136-2.896-5.836-6.483 0 0-.198-2.069 0-3.66h.024c.235-1.885 5.42-5.131 6.963-7.925C54.529 9.55 52.348 5.963 50 .049c-2.348 5.914-4.529 9.5-8.164 12.069 1.542 2.794 6.728 6.04 6.963 7.925.198 1.591 0 3.66 0 3.66-1.7 3.587-4.908 5.992-5.836 6.483-.444.235-.411.618 0 .885 3.964 2.573 5.836 6.786 5.836 6.786v3.163l-1.978 3.412h-.013l.009.007-.014.024-3.957.007-2.739-1.581s-2.713-3.728-2.959-8.447c-.025-.489-.341-.709-.766-.442-.889.558-4.576 2.134-8.533 1.813 0 0-1.891-.863-3.169-1.83l.012-.02c-1.515-1.146-1.734-7.26-3.382-9.992-4.043 1.864-8.239 1.959-14.535 1.036 3.947 4.99 5.963 8.672 6.37 13.105 3.191.061 8.595-2.806 10.345-2.067 1.477.624 3.169 1.83 3.169 1.83 2.256 3.266 2.735 7.247 2.696 8.296-.019.502.33.665.766.442 4.21-2.147 8.795-1.661 8.795-1.661l2.739 1.581 1.966 3.419-.007.011.011-.004.014.024-1.973 3.431-2.739 1.581s-4.585.486-8.795-1.661c-.436-.223-.785-.059-.766.442.039 1.049-.44 5.03-2.696 8.296 0 0-1.693 1.206-3.169 1.83l-.012-.02c-1.75.739-7.154-2.129-10.345-2.067-.407 4.433-2.423 8.115-6.37 13.105 6.295-.924 10.492-.828 14.535 1.036 1.649-2.732 1.867-8.846 3.382-9.992 1.278-.967 3.169-1.83 3.169-1.83 3.956-.321 7.644 1.255 8.533 1.813.425.267.741.047.766-.442.246-4.719 2.959-8.447 2.959-8.447l2.739-1.581 3.944.007.007.011.002-.011h.028l1.985 3.424v3.163s-1.872 4.213-5.836 6.786c-.411.267-.444.65 0 .885.928.491 4.136 2.896 5.836 6.483 0 0 .198 2.069 0 3.66h-.024c-.235 1.885-5.42 5.131-6.963 7.925 3.635 2.569 5.817 6.156 8.164 12.069 2.348-5.914 4.529-9.5 8.164-12.069-1.542-2.794-6.728-6.04-6.963-7.925-.198-1.591 0-3.66 0-3.66 1.7-3.587 4.908-5.992 5.836-6.483.444-.235.411-.618 0-.885-3.964-2.573-5.836-6.786-5.836-6.786v-3.163l1.978-3.412h.013l-.009-.007.014-.024 3.957-.007 2.739 1.581s2.713 3.728 2.959 8.447c.025.489.341.709.766.442.889-.558 4.576-2.134 8.533-1.813 0 0 1.891.863 3.169 1.83l-.012.02c1.515 1.146 1.734 7.26 3.382 9.992 4.043-1.864 8.239-1.959 14.535-1.036-3.947-4.99-5.963-8.672-6.37-13.105-3.189-.063-8.593 2.805-10.343 2.066zm3.573-33.927c.14-.63.295-1.322.463-1.98 2.018.541 4.08.756 6.245.746-1.091 1.87-1.936 3.764-2.477 5.782-.654-.183-1.331-.396-1.947-.589-1.078-.339-2.099-.659-3.06-.872.297-.94.53-1.984.776-3.087zm-14.657 8.156c1.093.332 2.367.621 3.748.768a20.35 20.35 0 0 0-1.209 3.63 21.424 21.424 0 0 0-3.888-.687 21.477 21.477 0 0 0 1.349-3.711zM17.63 33.913c-.616.193-1.292.406-1.947.589-.54-2.018-1.386-3.911-2.477-5.782 2.165.01 4.228-.205 6.245-.746.168.658.323 1.35.463 1.98.246 1.103.479 2.147.775 3.086-.961.214-1.981.534-3.059.873zm14.392 8.615a20.43 20.43 0 0 0-1.209-3.63 20.326 20.326 0 0 0 3.748-.768c.368 1.419.865 2.68 1.349 3.71a21.52 21.52 0 0 0-3.888.688zM19.915 69.971c-.14.63-.295 1.322-.463 1.98-2.018-.541-4.08-.756-6.245-.746 1.091-1.87 1.936-3.764 2.477-5.782.654.183 1.331.396 1.947.589 1.078.339 2.099.659 3.06.872-.297.94-.53 1.984-.776 3.087zm14.657-8.156a20.409 20.409 0 0 0-3.748-.768 20.35 20.35 0 0 0 1.209-3.63c1.413.391 2.753.591 3.888.687a21.477 21.477 0 0 0-1.349 3.711zm13.143-47.91c-.475-.437-.998-.916-1.483-1.391 1.478-1.477 2.695-3.156 3.769-5.036 1.074 1.88 2.291 3.559 3.769 5.036-.486.475-1.008.955-1.484 1.391-.832.764-1.62 1.488-2.285 2.214-.666-.727-1.454-1.45-2.286-2.214zm-.266 16.771a20.54 20.54 0 0 0 2.539-2.862 20.355 20.355 0 0 0 2.539 2.862 21.497 21.497 0 0 0-2.539 3.023 21.362 21.362 0 0 0-2.539-3.023zm4.836 55.345c.475.437.998.916 1.484 1.391-1.478 1.477-2.695 3.156-3.769 5.036-1.074-1.88-2.291-3.559-3.769-5.036a65.866 65.866 0 0 1 1.483-1.391c.832-.764 1.62-1.488 2.285-2.214.666.727 1.454 1.45 2.286 2.214zm.266-16.771a20.54 20.54 0 0 0-2.539 2.862 20.355 20.355 0 0 0-2.539-2.862 21.497 21.497 0 0 0 2.539-3.023c.65.934 1.493 1.995 2.539 3.023zm-.043-17.839L50 52.859l-2.508-1.448v-2.896L50 47.067l2.508 1.448v2.896zm12.931 10.384a21.434 21.434 0 0 0-1.349-3.71 21.44 21.44 0 0 0 3.888-.687 20.43 20.43 0 0 0 1.209 3.63c-1.38.146-2.655.435-3.748.767zm15.109 10.157a65.974 65.974 0 0 1-.463-1.98c-.246-1.103-.479-2.147-.775-3.086.962-.213 1.982-.533 3.06-.872.616-.193 1.292-.406 1.947-.589.54 2.018 1.386 3.911 2.477 5.782-2.166-.011-4.228.203-6.246.745z"/></svg>