<svg xmlns="http://www.w3.org/2000/svg" width="100" height="100" viewBox="0 0 100 100"><path fill="#6CA9E0" d="M73.438 55.462c-1.45 2.51-5.155 3.449-6.934 2.419-3.363-1.944-4.119-4.752-2.291-7.921-1.828-3.162-1.072-5.971 2.291-7.915 1.779-1.03 5.484-.091 6.934 2.413 0 0 5.758-8.656 19.624-18.695.565-.409.06-1.283-.577-.999-15.629 6.99-26.006 7.648-26.006 7.648 1.45 2.504.408 6.184-1.371 7.214-3.369 1.944-6.178 1.188-8.006-1.974-3.656 0-5.709-2.059-5.709-5.941 0-2.059 2.663-4.801 5.557-4.801 0 0-4.618-9.313-6.377-26.341-.072-.694-1.081-.694-1.153 0-1.763 17.028-6.38 26.341-6.38 26.341 2.894 0 5.563 2.742 5.563 4.801 0 3.881-2.059 5.941-5.715 5.941-1.828 3.162-4.637 3.918-8 1.974-1.779-1.03-2.821-4.71-1.377-7.214 0 0-10.374-.658-25.997-7.646-.636-.285-1.141.59-.577.999C20.8 35.803 26.553 44.458 26.553 44.458c1.45-2.504 5.155-3.442 6.94-2.413 3.363 1.944 4.113 4.752 2.285 7.915 1.828 3.168 1.078 5.977-2.285 7.921-1.785 1.03-5.49.091-6.94-2.419 0 0-5.755 8.658-19.623 18.702-.565.409-.06 1.283.577.999 15.627-6.991 26.005-7.649 26.005-7.649-1.444-2.51-.402-6.19 1.377-7.214 3.363-1.944 6.172-1.194 8 1.974 3.656 0 5.709 2.059 5.709 5.941 0 2.059-2.663 4.801-5.557 4.801 0 0 4.618 9.313 6.38 26.341.072.694 1.081.693 1.153 0 1.759-17.028 6.377-26.341 6.377-26.341-2.894 0-5.557-2.742-5.557-4.801 0-3.881 2.053-5.941 5.709-5.941 1.828-3.168 4.637-3.918 8.006-1.974 1.779 1.024 2.821 4.704 1.371 7.214 0 0 10.38.658 26.013 7.647.636.285 1.141-.59.576-.999-13.871-10.041-19.631-18.7-19.631-18.7zm-3.235-20.46c2.26-.378 5.544-1.06 9.645-2.273-3.101 2.943-5.331 5.441-6.794 7.214a9.75 9.75 0 0 0-3.516-1.267 9.706 9.706 0 0 0 .665-3.674zm-43.266 4.941c-1.456-1.773-3.686-4.271-6.788-7.214 4.094 1.212 7.379 1.895 9.645 2.273a9.701 9.701 0 0 0 .658 3.674 9.812 9.812 0 0 0-3.515 1.267zm2.858 24.981c-2.267.378-5.551 1.054-9.645 2.273 3.101-2.943 5.331-5.447 6.788-7.22a9.672 9.672 0 0 0 3.516 1.267 9.694 9.694 0 0 0-.659 3.68zm17.346-39.939c.804-2.151 1.858-5.331 2.858-9.487.993 4.155 2.047 7.336 2.852 9.487a9.736 9.736 0 0 0-2.852 2.407 9.853 9.853 0 0 0-2.858-2.407zm5.709 49.956c-.804 2.151-1.858 5.331-2.852 9.487-.999-4.155-2.053-7.336-2.858-9.487a9.765 9.765 0 0 0 2.858-2.413 9.68 9.68 0 0 0 2.852 2.413zm6.909-26.12s-2.973-1.529-4.643-.567c-.682.396-1.243.969-1.371 1.645v.012c.116.591.512 1.261 1.371 1.761 1.669.963 4.643-.567 4.643-.567-.049 1.456 1.042 4.521 1.505 5.362-1.06.03-3.899.317-5.398 1.377 0 0-.165-3.339-1.828-4.302-.689-.396-1.481-.591-2.126-.353-.451.39-.835 1.066-.835 2.066 0 1.919 2.809 3.729 2.809 3.729-1.28.688-3.394 3.162-3.887 3.991-.561-.908-2.224-3.223-3.887-3.991 0 0 2.809-1.81 2.809-3.729 0-.792-.219-1.566-.737-2.017h-.006c-.567-.195-1.346-.195-2.218.305-1.663.963-1.828 4.302-1.828 4.302-1.237-.768-4.436-1.359-5.398-1.377.506-.938 1.676-3.534 1.505-5.362 0 0 2.979 1.529 4.643.567.682-.396 1.243-.969 1.371-1.645v-.012c-.116-.591-.512-1.261-1.371-1.761-1.663-.963-4.643.567-4.643.567.049-1.456-1.042-4.521-1.505-5.362 1.06-.03 3.9-.317 5.398-1.377 0 0 .165 3.339 1.828 4.302.688.396 1.481.591 2.126.353.451-.39.835-1.066.835-2.065 0-1.919-2.809-3.729-2.809-3.729 1.28-.689 3.394-3.162 3.887-3.991.561.908 2.224 3.223 3.887 3.991 0 0-2.809 1.81-2.809 3.729 0 .786.219 1.56.731 2.011 0 0 0 .006.006.006.567.195 1.353.195 2.224-.305 1.663-.963 1.828-4.302 1.828-4.302 1.237.768 4.436 1.359 5.398 1.377-.505.937-1.675 3.533-1.505 5.361zm10.444 16.103a9.736 9.736 0 0 0-.664-3.68 9.658 9.658 0 0 0 3.516-1.267c1.462 1.773 3.692 4.277 6.794 7.22-4.102-1.219-7.386-1.895-9.646-2.273z"/><path fill="#6CA9E0" d="M52.064 48.577a2.512 2.512 0 0 0-1.877-1.091c-.061-.006-.128-.006-.189-.006-.055 0-.11 0-.164.006a2.478 2.478 0 0 0-1.889 1.078 1.982 1.982 0 0 0-.177.311 2.429 2.429 0 0 0-.006 2.163c.049.11.11.213.171.311a2.512 2.512 0 0 0 1.877 1.091c.061.006.128.006.189.006.055 0 .11 0 .165-.006a2.476 2.476 0 0 0 1.889-1.078c.067-.098.128-.201.171-.305.171-.329.262-.701.262-1.097 0-.384-.085-.749-.25-1.072a1.993 1.993 0 0 0-.172-.311z"/></svg>