<svg xmlns="http://www.w3.org/2000/svg" width="100" height="100" viewBox="0 0 100 100"><path fill="#6CA9E0" d="M79.12 62.511c-3.904-2.254-6.919-.415-10.702-2.599-.664-.384-.221-1 1.002-1.266 2.729-.594 4.087.126 7.333-.865 1.843-.563 4.16-2.696 7.118-5.002-3.715-.518-7.015-.843-9.708.469-4.075 1.986-4.426 3.73-6.999 4.42-1.147.307-3.692-1.264-4.505-1.733-1.767-1.02-2.196-4.746-2.196-4.746s-3.189 1.637-4.973.607c-.928-.536-1.348-1.257-1.473-1.889.134-.726.735-1.352 1.473-1.779 1.784-1.03 4.973.607 4.973.607s.429-3.726 2.196-4.746c.813-.469 3.39-2.032 4.505-1.733 2.573.689 2.924 2.434 6.999 4.42 2.693 1.312 5.993.987 9.708.469-2.958-2.306-5.275-4.439-7.118-5.002-3.246-.991-4.604-.271-7.333-.865-1.223-.266-1.666-.882-1.002-1.266 3.783-2.184 6.797-.345 10.702-2.599 4.511-2.604 8.323-8.88 13.53-12.076-5.371 2.911-12.712 3.075-17.223 5.679-3.904 2.254-3.819 5.784-7.602 7.968-.664.384-.976-.308-.595-1.5.85-2.66 2.153-3.476 2.918-6.783.434-1.878-.255-4.951-.773-8.665-2.306 2.958-4.237 5.654-4.447 8.642-.318 4.522 1.017 5.699.328 8.271-.307 1.147-2.941 2.566-3.753 3.035-1.767 1.02-5.208-.471-5.208-.471s-.177 3.58-1.961 4.61c-.928.536-1.763.539-2.373.331-.562-.479-.804-1.312-.804-2.165 0-2.06 3.012-4.003 3.012-4.003s-3.012-2.235-3.012-4.275c0-.938-.065-3.951.752-4.768 1.883-1.883 3.57-1.315 7.327-3.851 2.483-1.676 3.851-4.697 5.261-8.173-3.476 1.409-6.482 2.348-7.891 3.664-2.481 2.315-2.536 3.851-4.415 5.918-.842.926-1.597 1.002-1.597.235 0-4.368 3.1-6.059 3.1-10.567 0-5.208-3.529-11.648-3.693-17.755-.164 6.107-3.693 12.547-3.693 17.755 0 4.508 3.1 6.199 3.1 10.567 0 .767-.755.691-1.597-.235-1.879-2.067-1.934-3.603-4.415-5.918-1.409-1.315-4.415-2.255-7.891-3.664 1.409 3.476 2.778 6.497 5.261 8.173 3.757 2.536 5.444 1.968 7.327 3.851.84.84.751 3.829.751 4.768 0 2.04-3.012 4.275-3.012 4.275s3.012 1.943 3.012 4.003c0 1.072-.415 1.796-.899 2.221-.696.247-1.538.04-2.277-.387-1.784-1.03-1.961-4.61-1.961-4.61s-3.441 1.491-5.208.471c-.813-.469-3.454-1.92-3.753-3.035-.689-2.573.646-3.749.328-8.271-.21-2.988-2.142-5.684-4.447-8.642-.518 3.715-1.207 6.788-.773 8.665.765 3.306 2.067 4.122 2.918 6.783.381 1.192.069 1.884-.595 1.5-3.783-2.184-3.697-5.714-7.602-7.968-4.511-2.604-11.852-2.768-17.223-5.679 5.207 3.196 9.019 9.472 13.53 12.076 3.904 2.254 6.919.415 10.702 2.599.664.384.221.999-1.002 1.266-2.729.594-4.087-.126-7.333.865-1.844.563-4.16 2.696-7.118 5.002 3.715.518 7.015.843 9.708-.469 4.075-1.986 4.426-3.73 6.999-4.42 1.147-.307 3.692 1.264 4.505 1.733 1.767 1.02 2.196 4.746 2.196 4.746s3.189-1.637 4.973-.607c.928.536 1.348 1.257 1.473 1.889-.134.726-.735 1.352-1.473 1.779-1.784 1.03-4.973-.607-4.973-.607s-.429 3.726-2.196 4.746c-.813.469-3.39 2.032-4.505 1.733-2.573-.689-2.924-2.434-6.999-4.42-2.693-1.312-5.993-.987-9.708-.469 2.958 2.306 5.275 4.439 7.118 5.002 3.246.991 4.604.271 7.333.865 1.223.266 1.666.882 1.002 1.266-3.783 2.184-6.797.345-10.702 2.599-4.511 2.604-8.323 8.88-13.53 12.076 5.371-2.911 12.712-3.075 17.223-5.679 3.904-2.254 3.819-5.784 7.602-7.968.664-.384.976.308.595 1.5-.85 2.66-2.153 3.476-2.918 6.783-.434 1.878.255 4.951.773 8.665 2.305-2.958 4.237-5.654 4.447-8.642.318-4.522-1.017-5.699-.328-8.271.307-1.147 2.941-2.566 3.753-3.035 1.767-1.02 5.208.471 5.208.471s.177-3.58 1.961-4.61c.928-.536 1.763-.539 2.373-.331.562.479.804 1.312.804 2.165 0 2.06-3.012 4.003-3.012 4.003s3.012 2.235 3.012 4.275c0 .938.065 3.951-.751 4.768-1.883 1.883-3.57 1.315-7.327 3.851-2.483 1.676-3.851 4.697-5.261 8.173 3.476-1.409 6.482-2.348 7.891-3.664 2.481-2.315 2.536-3.851 4.415-5.918.842-.926 1.597-1.002 1.597-.235 0 4.368-3.1 6.059-3.1 10.567 0 5.208 3.529 11.648 3.693 17.755.164-6.107 3.693-12.547 3.693-17.755 0-4.508-3.1-6.199-3.1-10.567 0-.767.755-.691 1.597.235 1.879 2.067 1.934 3.603 4.415 5.918 1.409 1.315 4.415 2.255 7.891 3.664-1.409-3.476-2.778-6.497-5.261-8.173-3.758-2.536-5.444-1.968-7.327-3.851-.84-.84-.752-3.829-.752-4.768 0-2.04 3.012-4.275 3.012-4.275s-3.012-1.943-3.012-4.003c0-1.072.415-1.796.899-2.221.696-.247 1.538-.04 2.277.387 1.784 1.03 1.961 4.61 1.961 4.61s3.441-1.491 5.208-.471c.813.469 3.454 1.92 3.753 3.035.689 2.573-.646 3.749-.328 8.271.21 2.988 2.142 5.684 4.447 8.642.518-3.715 1.207-6.788.773-8.665-.765-3.306-2.067-4.122-2.918-6.783-.381-1.192-.069-1.884.595-1.5 3.783 2.184 3.697 5.714 7.602 7.968 4.511 2.604 11.852 2.768 17.223 5.679-5.207-3.196-9.02-9.472-13.53-12.076zM52.001 51.118L50 52.274l-2.001-1.155v-2.311L50 47.652l2.001 1.155v2.311z"/></svg>