<svg xmlns="http://www.w3.org/2000/svg" width="100" height="100"><path fill="#6CA9E0" d="M55.187 50.798v-1.595l15.576-2.395L92.938 25.21l-29.792 8.405-9.862 12.292-1.381-.798 5.714-14.686L50 .419l-7.617 30.003 5.714 14.686-1.381.798-9.862-12.292L7.062 25.21l22.175 21.598 15.576 2.395v1.595l-15.576 2.395L7.062 74.79l29.792-8.405 9.862-12.292 1.381.797-5.714 14.686L50 99.581l7.617-30.004-5.714-14.686 1.381-.797 9.862 12.292 29.792 8.405-22.175-21.599-15.576-2.394zm10.067-13.999l14.886-4.2-11.08 10.792-10.374 1.595 6.568-8.187zm-34.313 6.592L19.86 32.599l14.886 4.2 6.569 8.187-10.374-1.595zm3.805 19.81l-14.886 4.2 11.08-10.792 10.374-1.595-6.568 8.187zm11.448-33.012L50 15.198l3.806 14.992L50 39.971l-3.806-9.782zm7.612 39.622L50 84.802 46.194 69.81 50 60.029l3.806 9.782zm-1.684-18.586L50 52.451l-2.122-1.225v-2.451L50 47.549l2.122 1.225v2.451zm13.132 11.976l-6.569-8.187 10.374 1.595 11.08 10.792-14.885-4.2z"/></svg>