<svg xmlns="http://www.w3.org/2000/svg" width="100" height="100"><g fill="#6CA9E0"><path d="M15.996 66.107c-4.206 5.19-8.743 8.632-8.743 8.632s5.166-2.352 11.764-3.4l5.129-6.578-8.15 1.346zm0-32.288l8.261 1.153-5.24-6.385C12.419 27.539 7.17 25.331 7.17 25.331s4.62 3.298 8.826 8.488zm37.025-21.376C50.63 6.206 49.917.555 49.917.555s-.546 5.65-2.938 11.888l3.132 7.731 2.91-7.731zm30.983 21.376c4.206-5.19 8.743-8.632 8.743-8.632s-5.166 2.352-11.764 3.4l-5.129 6.578 8.15-1.346z"/><path d="M91.032 60.731a.53.53 0 0 0 .259-.232c.248-.429.022-1.193-.494-1.028-6.408 2.039-16.651 2.746-20.52 1.112-1.129-.477-1.051-.607-1.051-.607-1.725-2.496-2.091-5.539-2.061-6.341.014-.384-.252-.508-.586-.338-3.218 1.641-6.723 1.27-6.723 1.27l-3.465-2.001-1.491-2.594.005-.009-.008.003-.034-.059 1.496-2.602 3.465-2.001s3.505-.371 6.723 1.27c.333.17.6.045.586-.338-.03-.802.336-3.845 2.061-6.341-.001-.001-.073-.132 1.051-.607 3.87-1.634 14.145-.871 20.553 1.168.516.164.742-.599.494-1.029a.53.53 0 0 0-.259-.232c-3.83-1.577-12.89-3.792-16.381-3.502 1.996-2.878 4.641-11.775 5.19-15.881a.53.53 0 0 0-.072-.341c-.248-.429-1.022-.616-1.138-.086-1.438 6.569-5.947 15.793-9.297 18.327-.977.739-1.051.607-1.051.607-3.024.246-5.843-.959-6.522-1.386-.325-.204-.566-.036-.586.338-.188 3.608-2.262 6.457-2.262 6.457l-3.466 2.001-2.992-.005-.005-.009-.002.009h-.068l-1.505-2.597v-4.002s1.431-3.221 4.461-5.187c.314-.204.339-.497 0-.676-.709-.375-3.162-2.214-4.461-4.956-.001 0-.151-.002 0-1.213.52-4.168 6.318-12.686 11.288-17.215.401-.365-.148-.942-.644-.942a.538.538 0 0 0-.331.108c-3.281 2.529-9.729 9.267-11.223 12.435-1.494-3.168-7.877-9.907-11.158-12.435a.53.53 0 0 0-.331-.108c-.496 0-1.044.577-.644.942 4.97 4.53 10.704 13.047 11.223 17.215.152 1.216 0 1.213 0 1.213-1.299 2.742-3.752 4.58-4.461 4.956-.339.18-.314.472 0 .676 3.03 1.967 4.461 5.187 4.461 5.187v4.002l-1.5 2.588h-.01l.007.006-.033.059-3.002.005-3.465-2.001s-2.074-2.849-2.262-6.457c-.019-.374-.26-.542-.586-.338-.679.427-3.498 1.631-6.522 1.386-.001.001-.077.13-1.051-.607-3.35-2.534-7.827-11.814-9.265-18.383-.116-.529-.89-.343-1.138.086a.535.535 0 0 0-.072.341c.549 4.106 3.161 13.059 5.158 15.937-3.491-.29-12.518 1.869-16.349 3.446a.53.53 0 0 0-.259.232c-.248.429-.022 1.193.494 1.029 6.408-2.039 16.651-2.746 20.52-1.112 1.129.477 1.051.607 1.051.607 1.725 2.496 2.091 5.539 2.061 6.341-.014.384.252.508.586.338 3.218-1.641 6.723-1.27 6.723-1.27l3.465 2.001 1.491 2.593-.005.009.008-.003.034.059-1.496 2.602-3.465 2.001s-3.505.371-6.723-1.27c-.333-.17-.6-.045-.586.338.03.802-.336 3.845-2.061 6.341.001.001.074.132-1.051.607-3.87 1.634-14.145.871-20.553-1.168-.516-.164-.742.599-.494 1.029a.53.53 0 0 0 .259.232c3.83 1.577 12.89 3.792 16.381 3.502-1.996 2.878-4.641 11.775-5.19 15.881a.535.535 0 0 0 .072.341c.248.429 1.022.616 1.138.086 1.438-6.569 5.947-15.793 9.297-18.327.977-.739 1.051-.607 1.051-.607 3.024-.246 5.843.959 6.522 1.386.325.204.566.036.586-.338.188-3.608 2.262-6.457 2.262-6.457l3.465-2.001 2.992.005.005.009.002-.009h.069l1.505 2.597v4.002s-1.431 3.221-4.461 5.187c-.314.204-.339.497 0 .676.709.375 3.162 2.214 4.461 4.956.001 0 .151.002 0 1.213-.52 4.168-6.318 12.686-11.288 17.215-.401.365.148.942.644.942a.536.536 0 0 0 .331-.108c3.281-2.529 9.729-9.267 11.223-12.435 1.494 3.168 7.877 9.907 11.158 12.435a.53.53 0 0 0 .331.108c.495 0 1.044-.577.644-.942-4.97-4.53-10.704-13.047-11.223-17.215-.152-1.216 0-1.213 0-1.213 1.299-2.742 3.752-4.58 4.461-4.956.339-.179.314-.472 0-.676-3.03-1.967-4.461-5.187-4.461-5.187v-4.002l1.5-2.588h.01l-.007-.006.034-.059 3.002-.005 3.465 2.001s2.074 2.849 2.262 6.457c.019.374.26.542.586.338.679-.427 3.498-1.631 6.522-1.386.001-.001.077-.13 1.051.607 3.35 2.534 7.827 11.815 9.265 18.383.116.529.89.343 1.138-.086a.535.535 0 0 0 .072-.341c-.549-4.106-3.161-13.059-5.158-15.937 3.49.289 12.518-1.869 16.348-3.446zm-27.879-20.64a15.62 15.62 0 0 0 2.865.587 15.54 15.54 0 0 0-.924 2.775 16.34 16.34 0 0 0-2.972-.525c.37-.788.75-1.752 1.031-2.837zm-28.279 3.417a15.64 15.64 0 0 0-.924-2.774 15.555 15.555 0 0 0 2.865-.587 16.369 16.369 0 0 0 1.031 2.836c-.867.074-1.892.227-2.972.525zm1.973 16.327a15.62 15.62 0 0 0-2.865-.587c.431-.97.726-1.925.924-2.775a16.34 16.34 0 0 0 2.972.525c-.37.788-.75 1.752-1.031 2.837zm11.18-26.199a15.65 15.65 0 0 0 1.941-2.188 15.65 15.65 0 0 0 1.941 2.188 16.456 16.456 0 0 0-1.941 2.311 16.388 16.388 0 0 0-1.941-2.311zm3.946 32.654a15.65 15.65 0 0 0-1.941 2.188 15.65 15.65 0 0 0-1.941-2.188 16.456 16.456 0 0 0 1.941-2.311 16.388 16.388 0 0 0 1.941 2.311zm-.384-15.522l-.889.75-.603.223-1.094-.394-.495-.411-.206-1.145.108-.633.889-.751.603-.223 1.094.394.495.411.206 1.145-.108.634zm11.596 9.011a16.369 16.369 0 0 0-1.031-2.836 16.34 16.34 0 0 0 2.972-.525c.198.85.494 1.804.924 2.774-1.055.112-2.03.333-2.865.587z"/><path d="M84.004 66.107l-8.261-1.153 5.24 6.385c6.596 1.047 11.845 3.255 11.847 3.256-.002-.002-4.621-3.299-8.826-8.488zm8.826 8.488zM46.979 87.483c2.391 6.237 3.104 11.888 3.104 11.888s.546-5.65 2.938-11.888l-3.132-7.731-2.91 7.731z"/></g></svg>